<?xml version="1.0" encoding="utf-8"?>
<!-- Generator: Adobe Illustrator 27.5.0, SVG Export Plug-In . SVG Version: 6.00 Build 0)  -->
<svg version="1.1" xmlns="http://www.w3.org/2000/svg" xmlns:xlink="http://www.w3.org/1999/xlink" x="0px" y="0px"
	 viewBox="0 0 2500 2500" style="enable-background:new 0 0 2500 2500;" xml:space="preserve">
<g id="Background">
	<rect style="fill:#FFFFFF;" width="2500" height="2500"/>
</g>
<g id="Illustration">
	<g id="Shopping_sprees_video_1_">
		<circle style="fill:#F2E6DC;" cx="1250" cy="1250" r="915"/>
		<g>
			<g>
				<g>
					<g>
						<g>
							
								<rect x="568.01" y="360.293" transform="matrix(-1 -1.224647e-16 1.224647e-16 -1 2702.2805 1831.2371)" style="fill:#D3BBA3;" width="1566.26" height="1110.651"/>
							<rect x="617.149" y="409.426" style="fill:#F7F1EB;" width="1467.984" height="917.186"/>
							<path style="fill:#D3BBA3;" d="M1186.27,1494.476h46.37l0,0c0,34.784,28.198,62.982,62.982,62.982h111.037
								c34.784,0,62.982-28.198,62.982-62.982l0,0h46.369l46.37,246.424v20.609H1139.9v-20.609L1186.27,1494.476z"/>
							<path style="fill:#D3BBA3;" d="M1562.38,1789.475h-422.481c-1.219,0-2.205-0.987-2.205-2.205
								c0-1.218,0.986-2.205,2.205-2.205h422.481c1.219,0,2.205,0.987,2.205,2.205
								C1564.585,1788.488,1563.599,1789.475,1562.38,1789.475z"/>
						</g>
					</g>
				</g>
			</g>
			<g>
				<g>
					<path style="fill:#FFFFFF;" d="M1183.289,1326.613h835.489V514.424h-309.661c-290.407,0-525.828,235.421-525.828,525.828
						V1326.613z"/>
					<g>
						<g>
							<g>
								<g>
									<path style="fill:#E2A18D;" d="M1407.623,988.494c-0.001-0.003,0-0.008-0.003-0.009
										C1296.867,921.779,1219.569,872.329,1195.106,858c-2.562-1.5-7.071-4.169-13.654-5.92
										c-24.389-6.488-38.149,10.024-66.906,14.905c-32.63,5.537-54.139-9.818-58.426-2.535
										c-2.982,5.067,3.5,13.143,21.646,23.461c0.001,0.001,0,0.004-0.001,0.003c-14.687-6.254-34.976-13.867-38.409-5.74
										c-3.462,9.595,19.325,21.339,33.457,27.769c-17.106-7.783-28.53-6.804-29.315-1.796
										c-1.235,7.883,10.624,17.008,33.63,26.417c0.001,0,0.001,0.002,0,0.002c-17.701-2.06-22.302,0.079-21.916,4.675
										c0.704,8.392,19.764,15.772,37.614,19.712c20.095,4.437,37.219,0.907,47.963-1.576c0.003-0.001,0.006,0,0.008,0.002
										c72.725,54.762,121.99,86.978,177.254,135.497C1353.27,1123.798,1433.815,1054.387,1407.623,988.494z"/>
									<path style="fill:#BC8271;" d="M1141.968,868.661c-26.915-18.655-32.67-31.088-29.578-35.259
										c5.2-7.015,34.698-0.494,77.469,21.815C1176.852,860.159,1154.974,863.719,1141.968,868.661z"/>
									<g>
										<path style="fill:#363E44;" d="M1409.012,990.648c-0.388,0-0.779-0.102-1.135-0.317
											c-14.743-8.881-30.071-18.168-46.17-27.982c-1.04-0.634-1.369-1.99-0.734-3.03c0.635-1.041,1.994-1.368,3.029-0.735
											c16.091,9.809,31.414,19.092,46.148,27.97c1.044,0.628,1.38,1.983,0.752,3.026
											C1410.489,990.268,1409.759,990.648,1409.012,990.648z"/>
										<path style="fill:#363E44;" d="M1119.875,919.569c-0.618,0-1.232-0.258-1.669-0.763c-0.797-0.922-0.693-2.313,0.226-3.11
											c3.975-3.436,14.794-11.373,30.25-11.01c10.865,0.267,19.135,4.485,24.158,7.977c1.001,0.695,1.249,2.069,0.553,3.069
											c-0.696,1-2.073,1.246-3.068,0.553c-4.53-3.148-11.98-6.95-21.751-7.19c-13.862-0.355-23.669,6.836-27.257,9.937
											C1120.9,919.393,1120.387,919.569,1119.875,919.569z"/>
										<path style="fill:#363E44;" d="M1133.396,865.253c-0.9,0-1.746-0.556-2.071-1.45c-0.418-1.144,0.172-2.409,1.316-2.827
											c3.647-1.33,7.084-2.754,10.406-4.131c7.222-2.993,14.041-5.82,21.374-6.956c1.21-0.186,2.334,0.639,2.517,1.841
											c0.185,1.204-0.637,2.33-1.841,2.516c-6.81,1.055-13.392,3.783-20.362,6.672c-3.365,1.395-6.845,2.838-10.583,4.201
											C1133.902,865.21,1133.648,865.253,1133.396,865.253z"/>
										<path style="fill:#363E44;" d="M1099.196,892.994c-1.266,0-2.528-0.036-3.785-0.108c-5.953-0.34-11.855-1.48-17.539-3.389
											c-1.154-0.388-1.776-1.638-1.389-2.792c0.39-1.154,1.641-1.775,2.793-1.388c5.312,1.784,10.826,2.85,16.385,3.167
											c3.833,0.217,7.708,0.08,11.534-0.411c1.206-0.15,2.31,0.7,2.467,1.906c0.155,1.208-0.7,2.313-1.908,2.468
											C1104.919,892.81,1102.053,892.994,1099.196,892.994z"/>
										<path style="fill:#363E44;" d="M1092.065,913.936c-1.266,0-2.528-0.035-3.785-0.108c-5.953-0.34-11.855-1.48-17.54-3.389
											c-1.154-0.387-1.776-1.638-1.389-2.792c0.39-1.154,1.639-1.775,2.793-1.388c5.312,1.784,10.826,2.85,16.385,3.167
											c3.833,0.217,7.71,0.08,11.53-0.411c1.249-0.151,2.315,0.699,2.47,1.906c0.155,1.208-0.7,2.313-1.906,2.468
											C1097.788,913.753,1094.922,913.936,1092.065,913.936z"/>
										<path style="fill:#363E44;" d="M1098.246,940.131c-1.264,0-2.528-0.036-3.787-0.108c-5.956-0.34-11.855-1.48-17.539-3.388
											c-1.154-0.388-1.776-1.638-1.389-2.792c0.39-1.154,1.643-1.774,2.793-1.388c5.312,1.784,10.824,2.849,16.385,3.167
											c3.837,0.218,7.713,0.08,11.53-0.411c1.251-0.157,2.315,0.699,2.47,1.905c0.155,1.208-0.698,2.313-1.906,2.468
											C1103.969,939.949,1101.106,940.131,1098.246,940.131z"/>
									</g>
								</g>
								<g>
									<path style="fill:#E2A18D;" d="M1576.256,964.702c-54.64,45.62-204.273,186.934-262.908,123.46
										c-48.5-52.503,103.294-183.695,154.615-232.515C1504.062,891.999,1540.159,928.35,1576.256,964.702z"/>
									<path style="fill:#E2A18D;" d="M1936.368,815.928c55.733,44.279,224.4,162.223,174.103,232.489
										c-41.603,58.121-200.796-63.988-258.99-104.37C1879.776,901.34,1908.071,858.634,1936.368,815.928z"/>
									<g>
										<path style="fill:#D87355;" d="M2009.981,848.563c0,0-159.991-136.74-340.143-93.044
											c-134.418,32.603-156.202,61.196-284.037,165.016l107.221,136.097l19.902-22.405
											c2.15,10.579,12.842,288.878,12.842,288.878h484.216l-66.732-318.199l24.024-6.864L2009.981,848.563z"/>
									</g>
								</g>
								<g>
									<path style="fill:#E2A18D;" d="M2038.334,938.509c-0.003,0-0.006-0.004-0.009-0.001
										c-109.41,68.886-188.356,115.661-212.16,131.06c-2.493,1.612-6.906,4.439-11.431,9.529
										c-16.769,18.86-8.215,38.579-16.799,66.456c-9.739,31.631-33.131,43.929-28.556,51.035
										c3.182,4.943,13.312,2.789,30.692-8.772c0.001-0.001,0.004,0.001,0.002,0.003c-12.195,10.302-28.124,24.994-22.411,31.717
										c7.011,7.41,27.753-7.655,39.855-17.382c-14.649,11.773-18.916,22.416-14.796,25.371
										c6.484,4.651,19.969-1.834,38.725-18.145c0.001-0.001,0.002,0,0.002,0.001c-9.805,14.88-9.966,19.951-5.688,21.675
										c7.811,3.147,22.978-10.552,34.53-24.719c13.005-15.948,17.559-32.829,20.176-43.541c0.001-0.003,0.003-0.005,0.005-0.006
										c81.631-40.301,132.57-69.799,200.768-97.317C2134.704,1047.935,2108.965,944.772,2038.334,938.509z"/>
									<path style="fill:#E2A18D;" d="M1811.771,1121.818c-28.771,15.641-42.464,15.185-44.797,10.546
										c-3.924-7.801,15.174-31.209,54.344-59.365C1819.878,1086.839,1813.212,1107.979,1811.771,1121.818z"/>
									<g>
										<path style="fill:#363E44;" d="M1935.877,1004.65c-0.736,0-1.455-0.369-1.873-1.04c-0.644-1.034-0.327-2.394,0.706-3.037
											c9.997-6.22,42.301-26.708,68.257-43.169c15.714-9.965,29.313-18.59,34.773-22.026c1.029-0.649,2.392-0.339,3.04,0.691
											c0.648,1.03,0.338,2.392-0.693,3.04c-5.456,3.436-19.051,12.058-34.758,22.019c-25.963,16.466-58.275,36.959-68.289,43.19
											C1936.678,1004.542,1936.276,1004.65,1935.877,1004.65z"/>
										<path style="fill:#363E44;" d="M1802.904,1129.152c-0.086,0-0.172-0.005-0.261-0.015
											c-1.208-0.143-2.073-1.238-1.931-2.448c0.454-3.859,0.73-7.57,0.995-11.16c0.577-7.793,1.122-15.153,3.406-22.211
											c0.375-1.157,1.621-1.796,2.775-1.419c1.158,0.375,1.793,1.618,1.419,2.776c-2.121,6.554-2.646,13.658-3.204,21.178
											c-0.269,3.637-0.547,7.397-1.012,11.35C1804.96,1128.327,1804.006,1129.152,1802.904,1129.152z"/>
										<path style="fill:#363E44;" d="M1799.984,1189.071c-0.568,0-1.137-0.219-1.568-0.655
											c-0.857-0.866-0.848-2.262,0.017-3.118c3.983-3.938,7.416-8.382,10.202-13.207c1.921-3.322,3.542-6.849,4.821-10.481
											c0.405-1.149,1.671-1.753,2.812-1.347c1.15,0.404,1.753,1.663,1.348,2.812c-1.369,3.889-3.107,7.665-5.161,11.223
											c-2.984,5.166-6.657,9.923-10.921,14.138C1801.104,1188.859,1800.544,1189.071,1799.984,1189.071z"/>
										<path style="fill:#363E44;" d="M1815.476,1204.865c-0.569,0-1.137-0.219-1.568-0.655
											c-0.857-0.866-0.848-2.262,0.017-3.118c3.981-3.938,7.415-8.381,10.202-13.208c1.918-3.318,3.54-6.845,4.823-10.482
											c0.407-1.148,1.662-1.75,2.814-1.346c1.148,0.405,1.75,1.664,1.346,2.813c-1.374,3.892-3.111,7.667-5.163,11.22
											c-2.984,5.167-6.66,9.924-10.921,14.138C1816.595,1204.652,1816.036,1204.865,1815.476,1204.865z"/>
										<path style="fill:#363E44;" d="M1841.652,1211.134c-0.568,0-1.137-0.218-1.568-0.654
											c-0.857-0.865-0.848-2.261,0.017-3.118c3.983-3.942,7.415-8.386,10.199-13.209c1.919-3.319,3.54-6.845,4.823-10.482
											c0.407-1.148,1.662-1.75,2.814-1.346c1.148,0.405,1.75,1.664,1.346,2.813c-1.374,3.892-3.111,7.667-5.163,11.221
											c-2.982,5.162-6.655,9.918-10.919,14.137C1842.773,1210.922,1842.211,1211.134,1841.652,1211.134z"/>
									</g>
								</g>
								<g>
									<g>
										<g>
											<polygon style="fill:#8B865C;" points="975.807,938.597 1349.413,938.597 1291.14,615.937 1048.501,615.937 											
												"/>
										</g>
										<path style="fill:#F7F1EB;" d="M1132.985,913.065c-0.997,0-1.901-0.682-2.142-1.694
											c-20.203-84.726-67.107-282.237-66.345-286.38c0.222-1.196,1.376-1.99,2.567-1.77c1.107,0.203,1.867,1.2,1.802,2.295
											c0.566,8.046,47.991,208.188,66.265,284.832c0.282,1.185-0.448,2.374-1.632,2.656
											C1133.328,913.045,1133.155,913.065,1132.985,913.065z"/>
										<path style="fill:#F7F1EB;" d="M992.792,927.217c-0.769,0-1.514-0.402-1.921-1.117c-0.601-1.059-0.228-2.405,0.831-3.006
											l61.716-35.029V632.919c0-1.218,0.986-2.205,2.205-2.205s2.205,0.987,2.205,2.205v256.43c0,0.793-0.426,1.526-1.118,1.917
											l-62.833,35.662C993.535,927.125,993.16,927.217,992.792,927.217z"/>
									</g>
									<path style="fill:#776E42;" d="M1109.116,636.316c2.345,0,4.246-1.901,4.246-4.246v-61.418
										c0-14.359,11.681-26.039,26.04-26.039h51.512c14.358,0,26.04,11.681,26.04,26.039v61.418c0,2.345,1.9,4.246,4.245,4.246
										s4.246-1.901,4.246-4.246v-61.418c0-19.04-15.49-34.531-34.531-34.531h-51.512c-19.04,0-34.531,15.49-34.531,34.531v61.418
										C1104.871,634.415,1106.771,636.316,1109.116,636.316z"/>
								</g>
							</g>
							<g>
								<g>
									<path style="fill:#E2A18D;" d="M1583.235,750.752c21.436,9.496,67.01-37.378,67.01-37.378l17.403-69.482
										c-6.57-32.322-38.098-53.198-70.42-46.628s-53.198,38.098-46.628,70.42C1550.601,667.685,1561.401,741.08,1583.235,750.752
										z"/>
									<path style="fill:#E2A18D;" d="M1663.695,806.002l-1.592,0.324c-21.124,4.294-41.73-9.35-46.024-30.475l-23.636-116.28
										c-0.116-0.571,0.253-1.128,0.824-1.244l76.023-15.453c0.571-0.116,1.128,0.253,1.244,0.824l23.636,116.28
										C1698.463,781.103,1684.819,801.708,1663.695,806.002z"/>
									<path style="fill:#E2A18D;" d="M1560.454,681.706c0,0-12.919,20.535-11.123,24.898c2.144,5.208,21.101,4.797,21.101,4.797
										S1560.026,681.837,1560.454,681.706z"/>
									<g>
										<path style="fill:#FFFFFF;" d="M1612.76,668.466c0,0-10.869-3.278-22.68-0.877c-2.513,0.511,6.315,19.656,8.469,18.032
											C1608.02,678.484,1612.76,668.466,1612.76,668.466z"/>
										<path style="fill:#373E44;" d="M1591.334,667.372c-2.913,0.499-5.903,1.31-8.823,2.608
											c-14.266,6.335-21.407,21.427-21.407,21.427s15.985,4.821,30.251-1.514c3.345-1.486,6.284-3.461,8.845-5.602
											C1600.223,677.751,1597.111,671.333,1591.334,667.372z"/>
									</g>
									<path style="fill:#363E44;" d="M1585.294,720.962c-1.296,0-2.603-0.236-3.854-0.722c-1.135-0.441-1.697-1.719-1.255-2.853
										c0.439-1.137,1.723-1.696,2.853-1.257c2.276,0.884,4.858,0.359,6.582-1.332c1.662-1.631,2.259-4.127,1.524-6.357
										c-0.383-1.156,0.246-2.403,1.402-2.784c1.163-0.384,2.403,0.247,2.784,1.403c1.26,3.814,0.23,8.086-2.623,10.885
										C1590.703,719.913,1588.022,720.962,1585.294,720.962z"/>
									<path style="fill:#363E44;" d="M1610.171,747.924c-0.736,0-1.458-0.37-1.875-1.042c-0.642-1.035-0.325-2.394,0.71-3.036
										c18.03-11.195,39.743-30.894,39.96-31.092c0.9-0.82,2.295-0.754,3.113,0.146c0.82,0.9,0.754,2.295-0.146,3.115
										c-0.22,0.201-22.231,20.171-40.602,31.577C1610.97,747.816,1610.568,747.924,1610.171,747.924z"/>
								</g>
								<path style="fill:#363E44;" d="M1656.28,589.015c-14.575-27.312-37.11-37.284-47.656-38.85
									c-31.047-4.609-49.835,21.742-75.166,33.001c-26.037,11.572-57.266,11.769-75.052,7.403
									c6.737,26.091,20.213,39.102,26.936,44.547c33.001,26.732,90.534,22.875,139.859-13.468
									c3.453,14.504,6.906,29.008,10.359,43.511c-1.492-13.23,5.125-19.939,11.914-21.238c7.956-1.523,16.576,6.734,18.129,14.504
									c2.938,14.693-4.962,26.86-6.215,28.49c8.234,10.887,16.071,17.582,25.05,25.352c24.464-21.903,33.868-58.344,21.051-85.957
									C1689.403,591.654,1658.38,589.246,1656.28,589.015z"/>
							</g>
						</g>
					</g>
				</g>
				<g>
					<path style="fill:#FFFFFF;" d="M1963.436,1293.358H707.793c-11,0-19.949-8.949-19.949-19.949
						c0-10.999,8.948-19.948,19.949-19.948h1255.642c10.998,0,19.947,8.949,19.947,19.948
						C1983.382,1284.409,1974.434,1293.358,1963.436,1293.358z M707.793,1257.87c-8.567,0-15.539,6.971-15.539,15.539
						c0,8.568,6.972,15.539,15.539,15.539h1255.642c8.568,0,15.537-6.971,15.537-15.539c0-8.568-6.97-15.539-15.537-15.539H707.793z
						"/>
					<path style="fill:#E6D0BE;" d="M1543.183,1291.153H707.794c-9.8,0-17.744-7.944-17.744-17.744v0
						c0-9.8,7.944-17.744,17.744-17.744h835.389c9.8,0,17.744,7.944,17.744,17.744v0
						C1560.926,1283.209,1552.982,1291.153,1543.183,1291.153z"/>
				</g>
				<g>
					<g>
						<rect x="664.514" y="466.633" style="fill:#FFFFFF;" width="293.974" height="217.561"/>
						
							<ellipse transform="matrix(0.7071 -0.7071 0.7071 0.7071 -163.6837 740.0695)" style="fill:#E6D0BE;" cx="811.501" cy="567.618" rx="51.448" ry="51.448"/>
						<polygon style="fill:#FFFFFF;" points="841.817,567.619 793.37,539.648 793.37,595.589 						"/>
						<rect x="678.516" y="657.088" style="fill:#E6D0BE;" width="260.996" height="11.307"/>
					</g>
					<g>
						<rect x="664.514" y="745.097" style="fill:#D3BBA3;" width="293.974" height="18.014"/>
						<rect x="664.514" y="781.608" style="fill:#D3BBA3;" width="293.974" height="18.014"/>
						<rect x="664.514" y="818.119" style="fill:#D3BBA3;" width="279.063" height="18.014"/>
						<rect x="664.514" y="854.63" style="fill:#D3BBA3;" width="122.568" height="18.014"/>
					</g>
				</g>
				<g>
					<g>
						
							<ellipse transform="matrix(0.7071 -0.7071 0.7071 0.7071 -289.3167 1231.8942)" style="fill:#FFFFFF;" cx="1342.369" cy="965.183" rx="114.335" ry="114.335"/>
						<path style="fill:#D87355;" d="M1342.37,1081.724c-64.261,0-116.541-52.28-116.541-116.541s52.28-116.54,116.541-116.54
							c64.26,0,116.539,52.279,116.539,116.54S1406.63,1081.724,1342.37,1081.724z M1342.37,853.053
							c-61.83,0-112.131,50.302-112.131,112.13c0,61.829,50.302,112.131,112.131,112.131c61.828,0,112.129-50.302,112.129-112.131
							C1454.499,903.354,1404.197,853.053,1342.37,853.053z"/>
					</g>
					<polygon style="fill:#D87355;" points="1409.742,965.183 1302.076,903.022 1302.076,1027.344 					"/>
				</g>
			</g>
		</g>
		<g>
			<path style="fill:#363E44;" d="M890.171,1637.9c15.496,40.729,29.917,86.17,41.524,136.105
				c34.782,149.642,30.961,282.294,18.456,380.634c-72.282-1.538-144.563,1.538-216.846,0
				c-5.383-76.896-10.765-158.405-16.148-235.301c-12.304,36.91-24.607,73.82-36.911,110.73
				c-13.841,41.524-27.682,83.047-41.524,124.571c-73.819-2.307-147.639,2.307-221.459,0
				c3.998-75.637,17.685-188.042,59.978-306.814c40.379-113.397,93.193-200.59,136.105-260.676
				C705.622,1604.065,797.897,1620.983,890.171,1637.9z"/>
			<g>
				<g>
					<path style="fill:#84524D;" d="M987.201,1358.586c57.427,51.209,239.376,193.481,168.799,254.667
						c-71.641,62.109-207.956-74.461-268.278-121.615C920.881,1447.286,954.041,1402.936,987.201,1358.586z"/>
					<g>
						<path style="fill:#84524D;" d="M1105.558,1480.046c0.003-0.002,0.005-0.006,0.009-0.005
							c136.713,29.002,234.264,46.957,264.162,53.683c3.131,0.704,8.663,1.923,15.155,5.396
							c24.055,12.867,22.745,36.063,41.865,61.134c21.695,28.447,50.017,32.182,48.031,41.1c-1.381,6.203-12.461,7.802-34.409,2.568
							c-0.002,0-0.003,0.003-0.001,0.003c16.218,5.894,37.864,14.847,34.581,23.8c-4.344,10.135-31.01,2.603-46.919-2.742
							c19.256,6.47,27.561,15.671,24.486,20.207c-4.839,7.139-20.941,5.6-46.059-3.938l-0.001,0.001
							c15.504,11.431,17.562,16.515,13.866,19.861c-6.747,6.11-27.25-2.12-44.26-12.174c-19.149-11.319-30.074-26.74-36.731-36.628
							c-0.002-0.002-0.005-0.005-0.008-0.005c-97.857-10.385-160.546-21.276-240.002-23.712
							C1048.684,1627.042,1036.254,1512.784,1105.558,1480.046z"/>
						<path style="fill:#84524D;" d="M1403.848,1581.348c35.027,5.117,48.745-0.46,49.379-6.037
							c1.066-9.379-27.05-25.988-77.3-39.915C1382.558,1548.896,1397.217,1567.848,1403.848,1581.348z"/>
						<g>
							<path style="fill:#363E44;" d="M1385.37,1638.331c-1.113,0-2.069-0.839-2.19-1.97c-0.547-5.116-3.034-18.091-14.262-28.073
								c-7.93-7.049-16.657-9.55-22.582-10.407c-1.204-0.174-2.039-1.293-1.865-2.498c0.172-1.205,1.283-2.041,2.498-1.866
								c6.52,0.944,16.131,3.701,24.877,11.476c12.381,11.003,15.117,25.274,15.718,30.899c0.129,1.211-0.747,2.297-1.957,2.427
								C1385.527,1638.327,1385.448,1638.331,1385.37,1638.331z"/>
							<path style="fill:#363E44;" d="M1414.763,1585.442c-0.803,0-1.578-0.441-1.968-1.207c-1.944-3.829-3.63-7.534-5.258-11.117
								c-3.38-7.435-6.573-14.457-11.19-20.332c-0.754-0.957-0.586-2.343,0.37-3.096c0.962-0.754,2.347-0.585,3.096,0.371
								c4.946,6.292,8.244,13.548,11.737,21.231c1.61,3.54,3.275,7.201,5.176,10.946c0.551,1.086,0.119,2.413-0.967,2.964
								C1415.439,1585.365,1415.099,1585.442,1414.763,1585.442z"/>
							<path style="fill:#363E44;" d="M1440.101,1645.131c-0.306,0-0.616-0.064-0.911-0.199c-5.887-2.68-11.375-6.124-16.317-10.236
								c-3.408-2.837-6.574-6.01-9.407-9.43c-0.775-0.938-0.646-2.328,0.293-3.104c0.939-0.778,2.325-0.646,3.105,0.291
								c2.659,3.211,5.63,6.19,8.83,8.854c4.64,3.861,9.795,7.095,15.322,9.612c1.109,0.505,1.598,1.812,1.094,2.921
								C1441.74,1644.651,1440.939,1645.131,1440.101,1645.131z"/>
							<path style="fill:#363E44;" d="M1430.287,1666.938c-0.306,0-0.616-0.064-0.911-0.199c-5.889-2.68-11.377-6.124-16.317-10.236
								c-3.406-2.834-6.571-6.006-9.407-9.431c-0.775-0.938-0.646-2.328,0.293-3.104c0.937-0.778,2.325-0.646,3.105,0.292
								c2.661,3.215,5.633,6.193,8.83,8.853c4.638,3.862,9.792,7.095,15.322,9.612c1.109,0.504,1.598,1.812,1.094,2.92
								C1431.926,1666.458,1431.125,1666.938,1430.287,1666.938z"/>
							<path style="fill:#363E44;" d="M1406.079,1683.076c-0.306,0-0.616-0.064-0.911-0.199
								c-5.887-2.679-11.377-6.123-16.317-10.236c-3.404-2.832-6.569-6.005-9.407-9.43c-0.775-0.938-0.646-2.328,0.293-3.104
								c0.937-0.778,2.325-0.646,3.105,0.291c2.663,3.216,5.635,6.195,8.83,8.854c4.638,3.862,9.795,7.096,15.322,9.612
								c1.109,0.504,1.598,1.812,1.094,2.92C1407.718,1682.595,1406.917,1683.076,1406.079,1683.076z"/>
						</g>
					</g>
				</g>
				<path style="fill:#84524D;" d="M491.287,1391.296c-51.633,41.576-204.702,140.111-129.774,240.352
					c28.266,37.816,155.661-83.593,209.61-121.555C544.511,1470.494,517.899,1430.895,491.287,1391.296z"/>
				<path style="fill:#FFFFFF;" d="M445.181,1413.364c18.963-17.53,161.135-144.67,354.488-113.037
					c111.501,18.242,182.344,50.25,223.308,76.23c-40.893,73.999-54.137,90.378-77.206,119.085
					c11.791,59.979,23.581,119.957,35.372,179.936c-87.661-0.769-370.637-9.228-459.835-12.304
					c15.892-50.751,31.783-77.899,47.674-128.651c-12.303,10.253-24.607,20.505-36.909,30.758
					C503.622,1517.942,470.556,1457.964,445.181,1413.364z"/>
				<g>
					<g>
						<polygon style="fill:#8B865C;" points="391.385,1943.444 817.128,2051.138 843.731,1666.654 567.232,1596.713 						"/>
					</g>
					<path style="fill:#8B865C;" d="M630.432,1637.407c2.672,0.676,5.386-0.942,6.062-3.614l17.704-69.989
						c4.139-16.362,20.817-26.306,37.179-22.167l58.7,14.849c16.362,4.139,26.306,20.817,22.167,37.179l-17.704,69.989
						c-0.676,2.672,0.942,5.386,3.614,6.062c2.672,0.676,5.386-0.942,6.062-3.614l17.704-69.989
						c5.488-21.697-7.698-43.814-29.396-49.303l-58.7-14.849c-21.697-5.489-43.814,7.698-49.303,29.396l-17.704,69.989
						C626.142,1634.018,627.76,1636.731,630.432,1637.407z"/>
					<path style="fill:#F7F1EB;" d="M578.495,1959.349c-0.009,0-0.019,0-0.03,0c-1.219-0.017-2.192-1.017-2.175-2.235
						c1.094-79.854,4.825-340.752,6.914-345.312c0.504-1.105,1.811-1.595,2.922-1.087c1.031,0.472,1.524,1.639,1.178,2.691
						c-1.613,8.395-5.023,228.367-6.604,343.767C580.682,1958.381,579.698,1959.349,578.495,1959.349z"/>
					<path style="fill:#F7F1EB;" d="M414.651,1935.063c-0.967,0-1.854-0.642-2.123-1.621c-0.323-1.174,0.366-2.387,1.539-2.71
						l80.644-22.187l73.603-290.969c0.299-1.181,1.501-1.897,2.679-1.597c1.18,0.299,1.895,1.498,1.598,2.678l-73.917,292.214
						c-0.196,0.77-0.788,1.375-1.552,1.585l-81.882,22.527C415.043,1935.038,414.845,1935.063,414.651,1935.063z"/>
				</g>
				<g>
					<g>
						<polygon style="fill:#EFBC73;" points="656.149,2094.035 1103.323,1985.08 939.477,1615.879 649.06,1686.64 						"/>
					</g>
					<path style="fill:#E0AA63;" d="M727.554,1693.354c2.807-0.684,4.527-3.513,3.844-6.32l-17.911-73.512
						c-4.187-17.186,6.387-34.573,23.573-38.761l61.655-15.022c17.186-4.187,34.573,6.387,38.761,23.573l17.911,73.512
						c0.684,2.807,3.513,4.527,6.32,3.844c2.807-0.684,4.527-3.513,3.843-6.32l-17.911-73.512
						c-5.553-22.79-28.611-36.813-51.4-31.26l-61.655,15.022c-22.79,5.553-36.813,28.611-31.26,51.4l17.911,73.512
						C721.918,1692.317,724.747,1694.038,727.554,1693.354z"/>
					<path style="fill:#F7F1EB;" d="M836.192,2017.203c-0.801,0-1.574-0.438-1.966-1.201
						c-38.13-74.503-162.569-317.993-162.866-323.221c-0.071-1.215,0.859-2.257,2.076-2.327c1.117-0.074,2.117,0.74,2.299,1.836
						c2.552,8.441,107.278,213.97,162.418,321.703c0.553,1.084,0.125,2.413-0.958,2.967
						C836.872,2017.125,836.53,2017.203,836.192,2017.203z"/>
					<path style="fill:#F7F1EB;" d="M672.514,2075.026c-0.586,0-1.171-0.233-1.606-0.693c-0.833-0.886-0.792-2.282,0.095-3.117
						l63.871-60.129l-74.479-305.676c-0.289-1.183,0.437-2.376,1.621-2.665c1.178-0.287,2.375,0.438,2.663,1.62l74.783,306.924
						c0.187,0.771-0.054,1.584-0.631,2.127l-64.805,61.009C673.599,2074.828,673.057,2075.026,672.514,2075.026z"/>
				</g>
				<g>
					<g>
						<path style="fill:#84524D;" d="M401.192,1509.547c61.428,4.108,206.566,6.622,220.724,7.431
							c26.466,1.514,168.291,13.322,168.805,33.971c0.246,9.867-27.18,8.827-36.441,8.206c7.232,4.19,36.749,17.27,34.147,28.024
							c-3.058,12.634-40.616,2.433-41.301,2.643c7.776,3.509,39.317,16.235,37.68,24.373c-2.13,10.588-35.024,7.55-44.829,6.185
							c0.842,1.481,32.538,9.198,30.534,21.931c-1.471,9.348-31.644,6.514-44.737,5.323c-23.516-1.326-297.844-1.953-348.813-8.58
							C357.009,1636.46,374.206,1528.784,401.192,1509.547z"/>
						<path style="fill:#363E44;" d="M533.498,1516.191c-0.026,0-0.049,0-0.073-0.001c-31.242-1.023-112.739-4.651-132.554-5.756
							c-1.216-0.068-2.147-1.108-2.078-2.324c0.067-1.215,1.092-2.148,2.323-2.079c19.798,1.105,101.234,4.73,132.453,5.752
							c1.216,0.04,2.17,1.059,2.129,2.276C535.66,1515.25,534.683,1516.191,533.498,1516.191z"/>
						<g>
							<path style="fill:#363E44;" d="M754.661,1560.399c-0.291,0-0.586-0.058-0.87-0.18c-5.002-2.153-10.197-3.976-15.44-5.419
								c-9.414-2.59-19.18-4.015-29.029-4.234c-1.216-0.027-2.181-1.036-2.155-2.253c0.028-1.201,1.01-2.156,2.205-2.156
								c0.015,0,0.032,0,0.049,0c10.208,0.227,20.336,1.705,30.101,4.391c5.437,1.497,10.824,3.388,16.013,5.62
								c1.117,0.481,1.634,1.778,1.154,2.896C756.329,1559.9,755.515,1560.399,754.661,1560.399z"/>
							<path style="fill:#363E44;" d="M747.693,1591.379c-0.213,0-0.433-0.032-0.648-0.098c-1.092-0.336-2.209-0.661-3.35-0.975
								c-9.416-2.59-19.182-4.015-29.029-4.235c-1.216-0.027-2.181-1.036-2.155-2.253c0.028-1.201,1.01-2.156,2.205-2.156
								c0.015,0,0.032,0,0.049,0c10.208,0.228,20.334,1.706,30.101,4.392c1.184,0.326,2.34,0.663,3.475,1.012
								c1.165,0.358,1.817,1.592,1.46,2.755C749.508,1590.769,748.636,1591.379,747.693,1591.379z"/>
							<path style="fill:#363E44;" d="M739.356,1622.263c-0.133,0-0.267-0.012-0.403-0.037c-6.272-1.16-12.712-1.821-19.141-1.965
								c-1.216-0.027-2.181-1.036-2.155-2.254c0.028-1.2,1.01-2.155,2.205-2.155c0.015,0,0.032,0,0.05,0
								c6.664,0.149,13.341,0.835,19.843,2.037c1.197,0.222,1.99,1.372,1.768,2.569
								C741.326,1621.521,740.398,1622.263,739.356,1622.263z"/>
						</g>
					</g>
				</g>
			</g>
			<g>
				<path style="fill:#363E44;" d="M608.486,1204.516c-56.199,0-101.921-45.721-101.921-101.92s45.722-101.921,101.921-101.921
					s101.919,45.721,101.919,101.921S664.685,1204.516,608.486,1204.516z M608.486,1005.085c-53.768,0-97.512,43.743-97.512,97.511
					c0,53.767,43.743,97.51,97.512,97.51c53.766,0,97.509-43.743,97.509-97.51C705.995,1048.828,662.252,1005.085,608.486,1005.085z
					"/>
				<circle style="fill:#363E44;" cx="626.333" cy="1060.003" r="124.246"/>
				<circle style="fill:#363E44;" cx="757.145" cy="1156.731" r="83.821"/>
				<path style="fill:#84524D;" d="M825.676,1259.413c-18.521,13.153-70.84-22.557-70.84-22.557l-29.934-62.613
					c0-31.957,25.907-57.864,57.864-57.864h0c31.957,0,57.864,25.906,57.864,57.864
					C840.629,1174.242,844.539,1246.015,825.676,1259.413z"/>
				<ellipse style="fill:#84524D;" cx="763.229" cy="1323.106" rx="67.005" ry="27.472"/>
				<rect x="724.902" y="1173.592" style="fill:#84524D;" width="71.517" height="146.287"/>
				<path style="fill:#84524D;" d="M833.98,1189.458c0,0,16.23,17.004,15.367,21.494c-1.031,5.359-19.11,8.628-19.11,8.628
					S834.411,1189.499,833.98,1189.458z"/>
				<path style="fill:#363E44;" d="M807.91,1264.851c-0.127,0-0.258-0.011-0.388-0.034c-22.862-4.069-52.672-24.284-53.93-25.142
					c-1.005-0.686-1.266-2.058-0.579-3.064c0.687-1.006,2.063-1.264,3.064-0.578c0.302,0.205,30.293,20.54,52.216,24.443
					c1.199,0.214,1.998,1.359,1.785,2.557C809.889,1264.1,808.959,1264.851,807.91,1264.851z"/>
				<g>
					<path style="fill:#FFFFFF;" d="M776.017,1182.945c0,0,10.617-5.71,23.416-5.71c2.723,0-2.414,21.79-4.999,20.556
						C783.069,1192.367,776.017,1182.945,776.017,1182.945z"/>
					<g>
						<defs>
							<path id="SVGID_1_" d="M776.017,1182.945c0,0,15.615-8.399,31.799-4.824c16.184,3.575,26.808,17.77,26.808,17.77
								s-15.615,8.399-31.799,4.823C786.642,1197.14,776.017,1182.945,776.017,1182.945z"/>
						</defs>
						<clipPath id="SVGID_00000181053851976584300180000010149230191242429596_">
							<use xlink:href="#SVGID_1_"  style="overflow:visible;"/>
						</clipPath>
						<path style="clip-path:url(#SVGID_00000181053851976584300180000010149230191242429596_);fill:#363E44;" d="M799.974,1176.676
							c8.465-8.465,22.189-8.465,30.653,0c8.465,8.465,8.465,22.189,0,30.653s-22.189,8.465-30.653,0
							C791.51,1198.864,791.51,1185.14,799.974,1176.676z"/>
					</g>
				</g>
				<path style="fill:#363E44;" d="M813.448,1231.854c-2.101,0-4.201-0.593-6.027-1.779c-3.514-2.28-5.465-6.457-4.97-10.641
					c0.144-1.209,1.236-2.081,2.45-1.93c1.208,0.143,2.071,1.24,1.929,2.449c-0.299,2.528,0.874,5.05,2.991,6.423
					c2.198,1.426,5.056,1.425,7.28-0.005c1.031-0.657,2.39-0.362,3.047,0.663c0.659,1.024,0.362,2.388-0.661,3.047
					C817.649,1231.263,815.545,1231.854,813.448,1231.854z"/>
				<path style="fill:#363E44;" d="M710.819,1189.458c0,0,18.45-7.405,37.495,12.144l12.346-6.76c0,0-7.151-78.738,79.148-47.79
					c0,0-29.597-66.119-87.327-41.838C694.75,1129.495,710.819,1189.458,710.819,1189.458z"/>
				<g>
					<path style="fill:#84524D;" d="M710.09,1203.292c3.376,11.306,14.082,18.092,23.914,15.156
						c9.831-2.936,15.065-14.48,11.689-25.787c-3.376-11.306-14.082-18.092-23.913-15.156
						C711.948,1180.441,706.714,1191.986,710.09,1203.292z"/>
					<path style="fill:#363E44;" d="M738.023,1196.792c-0.95,0-1.828-0.618-2.112-1.574c-1.578-5.291-6.492-8.517-10.936-7.187
						c-2.625,0.784-4.638,3.056-5.385,6.078c-0.293,1.184-1.488,1.902-2.67,1.611c-1.182-0.292-1.903-1.487-1.61-2.669
						c1.124-4.553,4.267-8.01,8.404-9.246c6.767-2.02,14.146,2.527,16.422,10.151c0.349,1.166-0.314,2.395-1.481,2.744
						C738.443,1196.762,738.232,1196.792,738.023,1196.792z"/>
				</g>
				<path style="fill:#EFBC73;" d="M728.713,1249.103c-10.727,0-19.454-8.727-19.454-19.454c0-10.727,8.727-19.454,19.454-19.454
					c10.727,0,19.456,8.727,19.456,19.454C748.169,1240.376,739.44,1249.103,728.713,1249.103z M728.713,1214.605
					c-8.296,0-15.044,6.748-15.044,15.044s6.748,15.045,15.044,15.045c8.296,0,15.046-6.749,15.046-15.045
					S737.009,1214.605,728.713,1214.605z"/>
			</g>
			<g>
				<g>
					<g>
						<g>
							<path style="fill:#363E44;" d="M1570.67,1973.271c-1.019,0-1.916-0.704-2.147-1.713l-93.86-410.596l-117.153,1.117
								c-0.009,0-0.015,0-0.021,0c-1.208,0-2.194-0.973-2.205-2.184c-0.011-1.218,0.967-2.214,2.183-2.226l118.929-1.134
								c0.009,0,0.015,0,0.021,0c1.027,0,1.921,0.71,2.149,1.713l93.828,410.46l424.86-35.741l-0.22-270.896l-129.068,0.105h-0.002
								c-1.217,0-2.205-0.986-2.205-2.203c0-1.218,0.986-2.205,2.203-2.206l131.273-0.107h0.002c1.216,0,2.205,0.986,2.205,2.203
								l0.224,275.13c0,1.147-0.876,2.103-2.02,2.199l-428.79,36.072C1570.795,1973.269,1570.732,1973.271,1570.67,1973.271z"/>
							<path style="fill:#363E44;" d="M1888.026,1946.574c-1.148,0-2.114-0.888-2.196-2.05l-19.919-282.158l-366.284,0.11
								c-1.217,0.001-2.205-0.987-2.205-2.204c0-1.218,0.986-2.205,2.205-2.205l368.338-0.11c1.156,0,2.119,0.895,2.198,2.05
								l20.063,284.208c0.086,1.214-0.829,2.269-2.043,2.354C1888.131,1946.573,1888.078,1946.574,1888.026,1946.574z"/>
							<path style="fill:#363E44;" d="M1533.862,2162.382c-39.368,0-71.413-32.011-71.446-71.388
								c-0.03-39.395,31.994-71.472,71.387-71.504c0.019,0,0.039,0,0.058,0c39.368,0,71.415,32.012,71.448,71.388l0,0
								c0.03,39.395-31.994,71.471-71.387,71.504C1533.903,2162.382,1533.881,2162.382,1533.862,2162.382z M1533.862,2023.9
								c-0.019,0-0.035,0-0.054,0c-36.963,0.03-67.012,30.127-66.982,67.091c0.03,36.944,30.101,66.981,67.036,66.981
								c0.021,0,0.037,0,0.056,0c36.963-0.03,67.012-30.127,66.982-67.091l0,0C1600.87,2053.938,1570.799,2023.9,1533.862,2023.9z"
								/>
							<path style="fill:#363E44;" d="M2033.981,2161.975c-39.366,0.001-71.411-32.011-71.443-71.388
								c-0.03-39.395,31.994-71.471,71.387-71.504c0.019,0,0.041,0,0.06,0c19.062,0,36.985,7.415,50.476,20.885
								c13.507,13.484,20.952,31.419,20.967,50.503l0,0c0.015,19.084-7.4,37.031-20.883,50.536
								c-13.485,13.506-31.421,20.952-50.504,20.967C2034.022,2161.975,2034.001,2161.975,2033.981,2161.975z M2033.983,2023.493
								c-0.017,0-0.037,0-0.054,0c-36.963,0.03-67.012,30.127-66.982,67.091c0.03,36.944,30.101,66.979,67.034,66.981
								c0.021,0,0.037,0,0.056,0c17.908-0.014,34.737-7.001,47.386-19.673c12.652-12.672,19.611-29.512,19.596-47.418l0,0
								c-0.015-17.906-7-34.735-19.673-47.385C2068.688,2030.451,2051.869,2023.493,2033.983,2023.493z"/>
							<path style="fill:#363E44;" d="M1603.103,2092.602c-1.217,0-2.205-0.986-2.205-2.203s0.986-2.205,2.203-2.206l361.097-0.294
								h0.002c1.217,0,2.205,0.986,2.205,2.203s-0.986,2.205-2.203,2.207l-361.097,0.294H1603.103z"/>
							<path style="fill:#363E44;" d="M1554.132,2026.921c-0.215,0-0.433-0.032-0.65-0.099c-1.163-0.359-1.815-1.593-1.458-2.756
								l16.541-53.649c0.36-1.164,1.585-1.816,2.758-1.457c1.163,0.359,1.815,1.593,1.458,2.757l-16.54,53.649
								C1555.947,2026.313,1555.075,2026.921,1554.132,2026.921z"/>
						</g>
						<path style="fill:#363E44;" d="M1783.648,1955.355c-1.083,0-2.026-0.797-2.181-1.898l-41-291.346
							c-0.17-1.206,0.67-2.321,1.875-2.491c1.238-0.173,2.321,0.672,2.491,1.876l41,291.346c0.17,1.206-0.67,2.321-1.875,2.491
							C1783.853,1955.348,1783.749,1955.355,1783.648,1955.355z"/>
						<path style="fill:#363E44;" d="M1671.874,1964.759c-1.044,0-1.972-0.745-2.166-1.809l-55.323-302.392
							c-0.22-1.198,0.573-2.346,1.772-2.565c1.197-0.22,2.347,0.574,2.564,1.772l55.323,302.392c0.22,1.198-0.573,2.346-1.772,2.566
							C1672.139,1964.747,1672.005,1964.759,1671.874,1964.759z"/>
						<path style="fill:#363E44;" d="M1537.033,1826.13c-1.169,0-2.145-0.92-2.201-2.101c-0.056-1.217,0.883-2.249,2.099-2.305
							l462.319-21.66c1.255-0.044,2.248,0.884,2.306,2.099c0.056,1.216-0.883,2.249-2.099,2.305l-462.319,21.66
							C1537.104,1826.129,1537.068,1826.13,1537.033,1826.13z"/>
					</g>
				</g>
			</g>
		</g>
	</g>
</g>
</svg>
