<svg xmlns="http://www.w3.org/2000/svg" data-name="Layer 3" viewBox="0 0 64 64" id="ChooseHome"><path d="M58,6H6a5.006,5.006,0,0,0-5,5V43a5.006,5.006,0,0,0,5,5H26v4H23a3,3,0,0,0,0,6H41a3,3,0,0,0,2.213-1H58a1,1,0,0,0,1-1V52a1,1,0,0,0-1-1H57v-.879A4.14,4.14,0,0,1,57.606,48H58a5.006,5.006,0,0,0,5-5V11A5.006,5.006,0,0,0,58,6ZM57,33a3,3,0,0,0-1,.171V33a3,3,0,0,0-4.1-2.789,3,3,0,0,0-3.9-2.04V23a3,3,0,0,0-6,0v4H40V19.535L45,16.2l5,3.333V26h2V20.868l1.445.964,1.11-1.664-9-6a1,1,0,0,0-1.11,0l-9,6,1.11,1.664L38,20.868V28a1,1,0,0,0,1,1h3v6.586l-1.672-1.672A3.121,3.121,0,0,0,35,36.121a5.279,5.279,0,0,0,.427,2.081l.132.306c.216.5.45,1,.7,1.492H3V12H61V40H60V36A3,3,0,0,0,57,33ZM6,8H58a3,3,0,0,1,2.816,2H3.184A3,3,0,0,1,6,8ZM3,43V42H37.388a26.77,26.77,0,0,0,3.027,4H6A3,3,0,0,1,3,43Zm40,8H42a1,1,0,0,0-1,1H38V48h4.462c.18.158.354.322.538.475ZM28,48h8v4H28Zm-5,8a1,1,0,0,1,0-2H41v2Zm34-1H43V53H57Zm-.207-9.207A6.081,6.081,0,0,0,55,50.121V51H45V48a1,1,0,0,0-.375-.781,24.624,24.624,0,0,1-7.229-9.5l-.13-.3A3.265,3.265,0,0,1,37,36.121a1.121,1.121,0,0,1,1.914-.793l3.379,3.379A1,1,0,0,0,44,38V23a1,1,0,0,1,2,0V33h2V31a1,1,0,0,1,2,0v4h2V33a1,1,0,0,1,2,0v5h2V36a1,1,0,0,1,2,0v6.879A4.151,4.151,0,0,1,56.793,45.793Zm2.527-.113a6.076,6.076,0,0,0,.68-2.8V42h1v1A2.993,2.993,0,0,1,59.32,45.68Z" fill="#006c58" class="color000000 svgShape"></path><path d="M12 20.868V28a1 1 0 001 1h4a1 1 0 001-1V24h2v4a1 1 0 001 1h4a1 1 0 001-1V20.868l1.445.964 1.11-1.664-9-6a1 1 0 00-1.11 0l-9 6 1.11 1.664zM19 16.2l5 3.333V27H22V23a1 1 0 00-1-1H17a1 1 0 00-1 1v4H14V19.535zM29 32H9a1 1 0 00-1 1v4a1 1 0 001 1H29a1 1 0 001-1V33A1 1 0 0029 32zm-1 4H10V34H28z" fill="#006c58" class="color000000 svgShape"></path></svg>