<svg xmlns="http://www.w3.org/2000/svg" data-name="Layer 1" viewBox="0 0 32 32" id="Delivery"><path fill="#006c58" d="M31.8 18.27a1.45 1.45 0 0 0-2-.53L22 22.26c-.1-.11-.2-.21-.31-.31l7.75-4.76a.48.48 0 0 0 .16-.66l-4.53-7.44a.44.44 0 0 0-.3-.21.5.5 0 0 0-.36 0l-3.61 2.27-1.8 1.13-3.42 2.1a.43.43 0 0 0-.21.3.5.5 0 0 0 0 .36l3.51 5.71a4.59 4.59 0 0 0-.91 0L7.47 3l-.35-.6a.42.42 0 0 0-.18-.17A1.31 1.31 0 0 0 6.17 2H1.35a1.35 1.35 0 1 0 0 2.7h3.31l10.45 17.65a4.59 4.59 0 0 0-1.14 3 4.65 4.65 0 0 0 9.29 0 3.44 3.44 0 0 0 0-.46l8-4.67a1.45 1.45 0 0 0 .53-2Zm-11.27 1.89-3.12-5.09 2-1.2.56 1a.47.47 0 0 0 .35.24h.07a.51.51 0 0 0 .34-.14l.72-.72.88-.26a.5.5 0 0 0 .31-.29.51.51 0 0 0 0-.42l-.57-1 2.18-1.34 3.41 5.55-6.45 4a4.78 4.78 0 0 0-.68-.33Z" class="color231f20 svgShape"></path><path fill="#006c58" d="M14.65 13.88a.48.48 0 0 0 .41.23.45.45 0 0 0 .25-.07l7.23-4.44a.43.43 0 0 0 .22-.3.46.46 0 0 0-.06-.36l-3.6-5.87a.48.48 0 0 0-.66-.16l-2.7 1.66-1.88 1.15-2.66 1.63a.43.43 0 0 0-.21.3A.52.52 0 0 0 11 8Zm-.51-6.74.71 1.2a.5.5 0 0 0 .36.24h.06a.48.48 0 0 0 .34-.14l.76-.75.93-.26a.46.46 0 0 0 .31-.28.47.47 0 0 0 0-.43l-.73-1.24 1.46-.89L21 9l-5.56 3.41L12.75 8Z" class="color231f20 svgShape"></path></svg>