<?xml version="1.0" encoding="utf-8"?>
<!-- Generator: Adobe Illustrator 24.0.2, SVG Export Plug-In . SVG Version: 6.00 Build 0)  -->
<svg version="1.1" id="Layer_1" xmlns="http://www.w3.org/2000/svg" xmlns:xlink="http://www.w3.org/1999/xlink" x="0px" y="0px"
	 viewBox="0 0 288 288" style="enable-background:new 0 0 288 288;" xml:space="preserve">
<style type="text/css">
	.st0{opacity:0.7;}
	.st1{fill:#E1F0FF;}
	.st2{clip-path:url(#SVGID_1_);}
	.st3{fill:#161114;}
	.st4{fill:#8E3E30;}
	.st5{fill:#723021;}
	.st6{fill:#86C1E2;}
	.st7{fill:#D84848;}
	.st8{fill:#5E1D12;}
	.st9{fill:none;stroke:#FFFFFF;stroke-width:0.8356;stroke-linecap:round;stroke-miterlimit:7.5;}
	.st10{fill:#C43333;}
	.st11{fill:#FFFFFF;}
</style>
<g id="layer1">
	<g id="OBJECTS" transform="matrix(0.26458333,0,0,0.26458333,-70.274624,-42.891224)">
		<g id="g162" transform="translate(223.95129,123.81597)">
			<g id="g131" class="st0">
				<path id="path130" class="st1" d="M971.4,969.5c-106.9,109.4-234.2,161.8-382.1,157.1c-147.8-4.7-276.3-62.8-385.5-174.5
					C92.4,838,38.4,711.7,41.8,573.3C45.3,434.8,96.9,314.4,197,212c68.2-69.8,149.6-119.2,243.9-148.3
					c94.4-29.1,189.3-33.2,284.9-12.2c95.5,21,177.3,66.4,245.6,136.2c102.3,104.7,155.3,233.2,158.6,385.7
					C1133.5,725.7,1080.5,857.8,971.4,969.5L971.4,969.5z"/>
			</g>
			<g id="g161">
				<g>
					<defs>
						<path id="SVGID_3_" d="M971.4,969.5c-106.9,109.4-234.2,161.8-382.1,157.1c-147.8-4.7-276.3-62.8-385.5-174.5
							C92.4,838,38.4,711.7,41.8,573.3C45.3,434.8,96.9,314.4,197,212c68.2-69.8,149.6-119.2,243.9-148.3
							c94.4-29.1,189.3-33.2,284.9-12.2c95.5,21,177.3,66.4,245.6,136.2c102.3,104.7,155.3,233.2,158.6,385.7
							C1133.5,725.7,1080.5,857.8,971.4,969.5L971.4,969.5z"/>
					</defs>
					<clipPath id="SVGID_1_">
						<use xlink:href="#SVGID_3_"  style="overflow:visible;"/>
					</clipPath>
					<g id="g160" class="st2">
						<g id="g139">
							<path id="path131" class="st3" d="M540.2,816.9c0,0-29.6,51.4-124.6-0.7c-81.2-44.5-28.1-104.2-28.1-104.2
								s-55.6,36.5-78.2,9.3c-22.6-27.3,50.5-49.7,50.5-49.7s-141.3,23-146.8-63.1s107.9-70.2,107.9-70.2s-144.1-35.3-107.5-143.2
								c36.6-107.9,129.7-71.5,129.7-71.5S251.8,303.3,261,266c9.2-37.3,97.7,17.8,97.7,17.8s-77-82.6-2.2-165.1
								s180.9,56.6,180.9,56.6s-13-85.9,44.7-109.6s39.4,106.6,39.4,106.6s-7.6-116.6,80.9-99.6c88.5,17,33.5,161.4,33.5,161.4
								s45-135.7,139.5-77c94.4,58.7,22,188.9-20.1,210.8c-42,21.8,38.1-88.7,89-27.4c50.8,61.4-83.6,75.4-83.6,75.4
								s123.6-34,140.1,68.9c16.5,102.9-127.1,116.1-127.1,116.1s59.2-4.5,61.3,46.4c2.1,50.9-90,1.9-90,1.9s72.1,66.3,24,125.7
								c-48.2,59.4-127.8-29.8-127.8-29.8s38.5,60.3-12.8,81.4c-51.3,21-84.5-67.4-84.5-67.4L540.2,816.9z"/>
							<g id="g138">
								<g id="g133">
									<path id="path132" class="st4" d="M510.7,841.1c32.3-28.2,2.3-189.8,2.3-189.8h183c0,0-30,161.5,2.3,189.8
										c32.3,28.2,276.7,25.6,253.7,297.4H257C234,866.8,478.4,869.3,510.7,841.1L510.7,841.1z"/>
									<path id="path133" class="st5" d="M520,825c16-49.7-7-173.6-7-173.6h183c0,0-12.3,66.6-12.6,121.8
										C637.3,810.2,579.4,824.9,520,825z"/>
								</g>
								<g id="g137">
									<path id="path134" class="st6" d="M461.4,848.8c0,0,25.9,89,143,89.7c117.2-0.7,143-89.7,143-89.7
										c265.1,64.1,208.3,289.8,208.3,289.8l-350,2.5v0l-1.4,0l-1.4,0v0l-350-2.5C253.1,1138.6,196.3,912.9,461.4,848.8z"/>
									<g id="g136">
										<path id="path135" class="st7" d="M511.3,1140.7l-88.9-286.8c0,0-179.7,25.2-195.2,284.9L511.3,1140.7z"/>
										<path id="path136" class="st7" d="M700.8,1140.7l88.9-286.8c0,0,168.3,25.2,183.8,284.9L700.8,1140.7z"/>
									</g>
								</g>
							</g>
						</g>
						<g id="g159">
							<g id="g150">
								<g id="g146">
									<g id="g142">
										<path id="path139" class="st5" d="M815.2,575.7c-9.4,35-35.7,66-56.4,60.3c-20.7-5.8-27.9-46.2-18.6-81.2
											c9.4-35,31.7-51.3,52.4-45.6C813.4,514.9,824.6,540.6,815.2,575.7L815.2,575.7z"/>
										<g id="g141">
											<g id="g140">
												<path id="path140" class="st8" d="M811.2,560.8c-1.2-4.4-2.5-8.7-4-12.8c-0.8-2-1.7-4-2.6-5.7c-0.9-1.7-2.3-3.1-3.1-3.3
													c-0.6-0.1-0.7,0-2,0.8c-0.2,0.2-0.7,0.6-0.6,0.6c-0.3,0.4-0.9,0.9-1,1.1c-0.2,0.3-0.3,0.5-0.5,0.8l-0.7,1.1
													c-1.8,3.2-3,7.2-4.2,11.3c-1.2,4.1-2.2,8.3-3,12.5c-1,4.2-1.8,8.6-2.5,12.9l-2.3,13.1l-2.2,13.1l-1.6-3.4
													c0.8,0.7,1.4,1.2,2,1.9c0.6,0.6,1.2,1.3,1.7,2c1.1,1.4,2.1,2.9,2.9,4.7c0.7,1.8,1.2,4,0.8,6.2c-0.5,2.2-1.7,4-3.1,5.2
													c-2.8,2.5-5.9,3.4-9,4.2c-3,0.8-6.1,1-9.1,1.2c2.9-1.1,5.7-2.3,8.3-3.6c1.3-0.7,2.6-1.4,3.7-2.3
													c1.2-0.8,2.2-1.7,2.9-2.7c1.5-2,1.2-3.6,0.1-5.5c-0.6-0.9-1.4-1.9-2.4-2.8c-0.5-0.4-1-0.8-1.5-1.2
													c-0.5-0.4-1.1-0.8-1.5-1l-1.6-0.9l0-2.5c0-4.6,0.1-9.1,0.4-13.7c0.3-4.5,0.7-9.1,1.3-13.6c0.6-4.5,1.4-9,2.2-13.6
													c1-4.5,2.2-9,3.6-13.5c1.5-4.5,3.4-8.9,6.3-13.3c0.8-1.1,1.6-2.2,2.9-3.4c0.6-0.6,0.9-0.8,1.4-1.1
													c0.9-0.7,1.3-0.9,2-1.3c1.4-0.7,2.9-1.4,4.9-1.5c1.9-0.1,4.1,0.5,5.5,1.6c2.9,2.3,3.8,5,4.6,7.3
													c0.8,2.4,1.2,4.8,1.4,7.1C812,551.6,811.9,556.2,811.2,560.8L811.2,560.8z"/>
											</g>
											<path id="path141" class="st9" d="M772.3,618.5c30.4,0,55.1,25.2,55.1,56.4s-24.7,56.4-55.1,56.4
												c-30.4,0-55.1-25.2-55.1-56.4"/>
										</g>
									</g>
									<g id="g145">
										<path id="path142" class="st5" d="M393.7,575.7c9.4,35,35.7,66,56.4,60.3c20.7-5.8,27.9-46.2,18.6-81.2
											c-9.4-35-31.7-51.3-52.4-45.6C395.6,514.9,384.4,540.6,393.7,575.7z"/>
										<g id="g144">
											<g id="g143">
												<path id="path143" class="st8" d="M397.7,560.8c-0.6-4.5-0.8-9.2-0.3-13.8c0.2-2.3,0.6-4.7,1.4-7.1
													c0.9-2.4,1.8-5,4.6-7.3c1.5-1.1,3.6-1.8,5.5-1.6c2,0.1,3.5,0.8,4.9,1.5c0.7,0.4,1.1,0.6,2,1.3c0.5,0.4,0.8,0.5,1.4,1.1
													c1.3,1.2,2.1,2.3,2.9,3.4c2.9,4.4,4.8,8.8,6.3,13.3c1.5,4.5,2.6,9,3.6,13.5c0.9,4.5,1.6,9,2.2,13.6
													c0.6,4.5,0.9,9.1,1.3,13.6c0.3,4.5,0.3,9.1,0.4,13.7l0,2.5l-1.6,0.9c-0.4,0.2-1,0.7-1.5,1c-0.5,0.4-1,0.8-1.5,1.2
													c-1,0.9-1.8,1.8-2.4,2.8c-1.1,1.9-1.4,3.5,0.1,5.5c0.7,1,1.7,1.9,2.9,2.7c1.1,0.8,2.4,1.6,3.7,2.3
													c2.6,1.3,5.4,2.5,8.3,3.6c-3-0.2-6.1-0.5-9.1-1.2c-3-0.8-6.2-1.7-9-4.2c-1.4-1.2-2.7-3-3.1-5.2
													c-0.4-2.2,0.1-4.4,0.8-6.2c0.8-1.8,1.8-3.3,2.9-4.7c0.6-0.7,1.1-1.3,1.7-2c0.6-0.6,1.2-1.2,2-1.9l-1.6,3.4l-2.2-13.1
													l-2.3-13.1c-0.7-4.3-1.6-8.7-2.5-12.9c-0.8-4.3-1.8-8.5-3-12.5c-1.2-4-2.4-8.1-4.2-11.3l-0.7-1.1
													c-0.2-0.3-0.3-0.5-0.5-0.8c-0.1-0.3-0.7-0.8-1-1.1c0.1,0-0.5-0.4-0.6-0.6c-1.2-0.8-1.3-1-2-0.8
													c-0.8,0.2-2.1,1.7-3.1,3.3c-1,1.7-1.8,3.7-2.6,5.7C400.3,552.1,398.9,556.4,397.7,560.8L397.7,560.8z"/>
											</g>
											<path id="path144" class="st9" d="M435.9,618.5c-30.4,0-55.1,25.2-55.1,56.4s24.7,56.4,55.1,56.4S491,706,491,674.8"/>
										</g>
									</g>
									<path id="path145" class="st4" d="M776.1,512.9c0,128.2-77.4,259-172.9,259s-172.9-130.8-172.9-259s77.4-205.1,172.9-205.1
										S776.1,384.7,776.1,512.9z"/>
								</g>
								<g id="g149">
									<path id="path146" class="st7" d="M431.6,572.3c0,0-12.5-197.2,164.8-205.1c177.9-7.9,174,211.7,174,211.7
										s83.1-308.6-152.7-316.5C372.2,254.2,431.6,572.3,431.6,572.3z"/>
									<g id="g148">
										<path id="path147" class="st10" d="M463.5,440.1c-10.4-14.4-19-29.7-26.3-45.6c-23.1,84.3-5.7,177.8-5.7,177.8
											S427,499.1,463.5,440.1z"/>
										<path id="path148" class="st10" d="M763.6,351.3c-4.3,32.7-13,64.6-24.3,95.7c32.2,60,31,131.9,31,131.9
											S806.5,444.9,763.6,351.3z"/>
									</g>
								</g>
							</g>
							<g id="g158">
								<g id="g154">
									<g id="g151">
										<path id="path150" class="st8" d="M594,530.7c1.8,3.8,3.2,7.8,4.3,11.9c1.2,4.1,1.9,8.2,2.6,12.4c0.6,4.2,0.8,8.5,1,12.8
											c0,4.3-0.3,8.6-0.8,12.9c-0.6,4.3-1.6,8.6-2.8,12.8c-1.2,4.3-3.1,8.3-5.1,12.2c-1.1,1.9-2.2,3.9-3.4,5.7
											c-1.2,1.8-2.7,3.5-4.1,5.2c-1.5,1.7-3,3.3-4.6,4.7c-1.6,1.5-3.4,2.7-5.1,4.1l-0.6-7c5.4,3.5,10.7,7.2,15.9,10.9
											c5.2,3.8,10.4,7.6,15.4,11.8c-6.1-2.2-12-4.7-17.9-7.2c-5.9-2.6-11.7-5.3-17.4-8.1l-4.8-2.4l4.2-4.6
											c1.3-1.4,2.7-2.7,3.8-4.2c1.3-1.4,2.4-2.9,3.5-4.4c1.1-1.6,2.1-3.1,3-4.7c1-1.6,1.9-3.2,2.7-4.9c0.8-1.7,1.6-3.4,2.3-5.2
											l1.9-5.4c1.2-3.6,2.1-7.4,2.9-11.2c0.8-3.8,1.4-7.7,1.8-11.6c0.5-3.9,0.8-7.9,1-11.9c0.3-4,0.3-8.1,0.4-12.2
											C594.1,539.1,594.2,534.9,594,530.7L594,530.7z"/>
									</g>
									<path id="path151" class="st11" d="M656.6,676.2c0,0-63.2,50.1-112.9-5.6"/>
									<g id="g152">
										<path id="path152" class="st3" d="M571.8,511.3c0,0-1.7-1.1-4.8-3c-3-1.8-7.2-4.3-12.2-6.9c-4.9-2.6-10.6-5.2-16.5-7
											c-3-0.8-6-1.6-9-1.9c-3-0.3-6-0.6-9-0.2c-3,0.1-6,0.8-8.9,1.6c-2.9,0.9-5.9,1.9-8.8,3.2c-2.9,1.3-5.7,2.8-8.4,4.2
											c-2.6,1.6-5.3,3-7.6,4.6c-2.4,1.5-4.6,3-6.6,4.3c-2,1.3-3.8,2.4-5.3,3.4c-2.9,2-4.9,3-4.9,3s0.5-2.1,1.7-5.6
											c0.6-1.8,1.4-3.9,2.6-6.1c1.1-2.3,2.5-4.9,4.3-7.5c1.7-2.7,3.9-5.4,6.3-8.2c2.6-2.7,5.4-5.5,8.9-7.9
											c3.4-2.5,7.3-4.7,11.5-6.4c4.3-1.7,8.9-2.8,13.7-3.1c4.7-0.4,9.5,0.1,14,1.1c4.5,1,8.7,2.8,12.4,4.8
											c7.4,4.1,13,9.6,16.9,14.6c4,5.1,6.3,9.9,7.7,13.3C571.5,509.1,571.8,511.3,571.8,511.3L571.8,511.3z"/>
									</g>
									<g id="g153">
										<path id="path153" class="st3" d="M727.3,519.2c0,0-1.6-1.3-4.4-3.6c-2.8-2.2-6.7-5.3-11.3-8.5c-4.6-3.3-9.9-6.7-15.6-9.5
											c-5.7-2.7-11.7-4.8-17.9-5.4c-3.1-0.5-6.2-0.4-9.3-0.3c-1.6,0.2-3.1,0.3-4.7,0.5c-1.6,0.3-3.1,0.6-4.7,0.8
											c-3.1,0.7-6.1,1.5-9.1,2.4c-2.9,1.1-5.8,1.9-8.4,3c-2.7,0.9-5.1,1.9-7.3,2.9c-2.2,0.9-4.3,1.6-5.9,2.3
											c-3.3,1.4-5.3,2-5.3,2s0.9-2,2.8-5.1c0.9-1.6,2.1-3.5,3.7-5.5c1.5-2.1,3.4-4.3,5.7-6.5c2.2-2.3,4.9-4.5,7.9-6.8
											c3.1-2.1,6.5-4.2,10.4-5.9c3.9-1.7,8.1-3,12.6-3.8c4.5-0.7,9.3-0.9,13.9-0.3c4.7,0.6,9.3,1.8,13.5,3.7
											c4.3,1.7,8,4.2,11.4,6.7c6.7,5.2,11.5,11.3,14.8,16.9c3.3,5.6,5.1,10.7,6,14.3C727.1,517,727.3,519.2,727.3,519.2
											L727.3,519.2z"/>
									</g>
								</g>
								<g id="g157">
									<g id="g155">
										<path id="path154" class="st3" d="M650.5,584.9c0,0-0.5-1.7-1-4.9c-0.5-3.2-1-7.7-0.7-13.3c0.2-2.8,0.5-5.8,1.4-9
											c0.9-3.2,1.9-6.6,4.1-9.8c1.9-3.3,4.9-6.3,8.4-8.5c1.8-0.9,3.8-1.8,5.8-2.4l3-0.6l1.5-0.3l0.4-0.1l0.8,0l0.7,0l2.6,0.1
											c0.4,0,0.8,0,1.3,0.1l1.7,0.4c1.1,0.3,2.2,0.6,3.3,0.9c1.1,0.4,1.9,1,2.9,1.5c3.8,1.9,6.4,5.3,8.6,8.3
											c0.9,1.6,1.9,3.2,2.6,4.8c0.6,1.6,1.3,3.2,1.8,4.8c1,3.1,1.6,6.1,2,8.9c0.8,5.5,0.8,10.1,0.6,13.3c-0.2,3.2-0.5,5-0.5,5
											s-0.4-1.8-1.2-4.8c-0.8-3-2-7.3-3.7-12.2c-0.9-2.4-2-5-3.2-7.6c-1.2-2.6-2.9-5-4.6-7.4c-1.9-2.2-4-4.2-6.4-5.3
											c-0.6-0.3-1.2-0.7-1.8-0.9c-0.6-0.1-1.1-0.3-1.7-0.4l-0.8-0.3c-0.4-0.1-0.8,0-1.3,0l-2.6-0.1l-0.7,0l-0.2,0l-0.1,0h0
											c-0.1,0,0.9,0,0.4,0l-0.3,0l-1.1,0.2l-2.1,0.3c-1.3,0.4-2.6,0.9-3.9,1.5c-2.3,1.5-4.6,3-6.2,5.5
											c-3.5,4.6-5.4,10.3-6.8,15.2c-1.3,5-2.1,9.4-2.5,12.5C650.7,583,650.5,584.9,650.5,584.9L650.5,584.9z"/>
									</g>
									<g id="g156">
										<path id="path155" class="st3" d="M496.8,584.9c0,0-0.5-1.7-1-4.9c-0.5-3.2-1-7.7-0.7-13.3c0.2-2.8,0.5-5.8,1.4-9
											c0.9-3.2,1.9-6.6,4.1-9.8c1.9-3.3,4.9-6.3,8.4-8.5c1.8-0.9,3.8-1.8,5.8-2.4l3-0.6l1.5-0.3l0.4-0.1l0.8,0l0.7,0l2.6,0.1
											c0.4,0,0.8,0,1.3,0.1l1.7,0.4c1.1,0.3,2.2,0.6,3.3,0.9c1.1,0.4,1.9,1,2.9,1.5c3.8,1.9,6.4,5.3,8.6,8.3
											c0.9,1.6,1.9,3.2,2.6,4.8c0.6,1.6,1.3,3.2,1.8,4.8c1,3.1,1.6,6.1,2,8.9c0.8,5.5,0.8,10.1,0.6,13.3c-0.2,3.2-0.5,5-0.5,5
											s-0.4-1.8-1.2-4.8c-0.8-3-2-7.3-3.7-12.2c-0.9-2.4-2-5-3.2-7.6c-1.2-2.6-2.9-5-4.6-7.4c-1.9-2.2-4-4.2-6.4-5.3
											c-0.6-0.3-1.2-0.7-1.8-0.9c-0.6-0.1-1.1-0.3-1.7-0.4l-0.8-0.3c-0.4-0.1-0.8,0-1.3,0l-2.6-0.1l-0.7,0l-0.2,0l-0.1,0h0
											c-0.1,0,0.9,0,0.4,0l-0.3,0L519,545l-2.1,0.3c-1.3,0.4-2.6,0.9-3.9,1.5c-2.3,1.5-4.6,3-6.2,5.5
											c-3.5,4.6-5.4,10.3-6.8,15.2c-1.3,5-2.1,9.4-2.5,12.5C497,583,496.8,584.9,496.8,584.9L496.8,584.9z"/>
									</g>
								</g>
							</g>
						</g>
					</g>
				</g>
			</g>
		</g>
	</g>
</g>
</svg>
