<svg width="2500" height="2500" xmlns="http://www.w3.org/2000/svg" xmlns:xlink="http://www.w3.org/1999/xlink" version="1.1" xml:space="preserve">
 <g>
  <title>Layer 1</title>
  <g id="Illustration">
   <g id="Shopping_sprees_video_1_">
    <circle cx="1112.48257" cy="1475.02852" r="915" fill="#F2E6DC" id="svg_2"/>
    <g id="svg_3">
     <g id="svg_4">
      <g id="svg_5">
       <g id="svg_6">
        <g id="svg_7">
         <rect x="705.52743" y="135.26448" transform="matrix(-1 -1.22465e-16 1.22465e-16 -1 2702.28 1831.24)" width="1566.26" height="1110.651" fill="#D3BBA3" id="svg_8"/>
         <rect x="479.63157" y="634.45452" width="1467.984" height="917.186" fill="#F7F1EB" id="svg_9"/>
         <path d="m1048.75257,1719.50452l46.37,0l0,0c0,34.784 28.198,62.982 62.982,62.982l111.037,0c34.784,0 62.982,-28.198 62.982,-62.982l0,0l46.369,0l46.37,246.424l0,20.609l-422.48,0l0,-20.609l46.37,-246.424z" fill="#D3BBA3" id="svg_10"/>
         <path d="m1424.86257,2014.50352l-422.481,0c-1.219,0 -2.205,-0.987 -2.205,-2.205c0,-1.218 0.986,-2.205 2.205,-2.205l422.481,0c1.219,0 2.205,0.987 2.205,2.205c0,1.218 -0.986,2.205 -2.205,2.205z" fill="#D3BBA3" id="svg_11"/>
        </g>
       </g>
      </g>
     </g>
     <g id="svg_12">
      <g id="svg_13">
       <path d="m1045.77157,1551.64152l835.489,0l0,-812.189l-309.661,0c-290.407,0 -525.828,235.421 -525.828,525.828l0,286.361z" fill="#FFFFFF" id="svg_14"/>
       <g id="svg_15">
        <g id="svg_16">
         <g id="svg_17">
          <g id="svg_18">
           <path d="m1270.10557,1213.52252c-0.001,-0.003 0,-0.008 -0.003,-0.009c-110.753,-66.706 -188.051,-116.156 -212.514,-130.485c-2.562,-1.5 -7.071,-4.169 -13.654,-5.92c-24.389,-6.488 -38.149,10.024 -66.906,14.905c-32.63,5.537 -54.139,-9.818 -58.426,-2.535c-2.982,5.067 3.5,13.143 21.646,23.461c0.001,0.001 0,0.004 -0.001,0.003c-14.687,-6.254 -34.976,-13.867 -38.409,-5.74c-3.462,9.595 19.325,21.339 33.457,27.769c-17.106,-7.783 -28.53,-6.804 -29.315,-1.796c-1.235,7.883 10.624,17.008 33.63,26.417c0.001,0 0.001,0.002 0,0.002c-17.701,-2.06 -22.302,0.079 -21.916,4.675c0.704,8.392 19.764,15.772 37.614,19.712c20.095,4.437 37.219,0.907 47.963,-1.576c0.003,-0.001 0.006,0 0.008,0.002c72.725,54.762 121.99,86.978 177.254,135.497c35.219,30.922 115.764,-38.489 89.572,-104.382z" fill="#E2A18D" id="svg_19"/>
           <path d="m1004.45057,1093.68952c-26.915,-18.655 -32.67,-31.088 -29.578,-35.259c5.2,-7.015 34.698,-0.494 77.469,21.815c-13.007,4.942 -34.885,8.502 -47.891,13.444z" fill="#BC8271" id="svg_20"/>
           <g id="svg_21">
            <path d="m1271.49457,1215.67652c-0.388,0 -0.779,-0.102 -1.135,-0.317c-14.743,-8.881 -30.071,-18.168 -46.17,-27.982c-1.04,-0.634 -1.369,-1.99 -0.734,-3.03c0.635,-1.041 1.994,-1.368 3.029,-0.735c16.091,9.809 31.414,19.092 46.148,27.97c1.044,0.628 1.38,1.983 0.752,3.026c-0.413,0.688 -1.143,1.068 -1.89,1.068z" fill="#363E44" id="svg_22"/>
            <path d="m982.35757,1144.59752c-0.618,0 -1.232,-0.258 -1.669,-0.763c-0.797,-0.922 -0.693,-2.313 0.226,-3.11c3.975,-3.436 14.794,-11.373 30.25,-11.01c10.865,0.267 19.135,4.485 24.158,7.977c1.001,0.695 1.249,2.069 0.553,3.069c-0.696,1 -2.073,1.246 -3.068,0.553c-4.53,-3.148 -11.98,-6.95 -21.751,-7.19c-13.862,-0.355 -23.669,6.836 -27.257,9.937c-0.417,0.361 -0.93,0.537 -1.442,0.537z" fill="#363E44" id="svg_23"/>
            <path d="m995.87857,1090.28152c-0.9,0 -1.746,-0.556 -2.071,-1.45c-0.418,-1.144 0.172,-2.409 1.316,-2.827c3.647,-1.33 7.084,-2.754 10.406,-4.131c7.222,-2.993 14.041,-5.82 21.374,-6.956c1.21,-0.186 2.334,0.639 2.517,1.841c0.185,1.204 -0.637,2.33 -1.841,2.516c-6.81,1.055 -13.392,3.783 -20.362,6.672c-3.365,1.395 -6.845,2.838 -10.583,4.201c-0.25,0.091 -0.504,0.134 -0.756,0.134z" fill="#363E44" id="svg_24"/>
            <path d="m961.67857,1118.02252c-1.266,0 -2.528,-0.036 -3.785,-0.108c-5.953,-0.34 -11.855,-1.48 -17.539,-3.389c-1.154,-0.388 -1.776,-1.638 -1.389,-2.792c0.39,-1.154 1.641,-1.775 2.793,-1.388c5.312,1.784 10.826,2.85 16.385,3.167c3.833,0.217 7.708,0.08 11.534,-0.411c1.206,-0.15 2.31,0.7 2.467,1.906c0.155,1.208 -0.7,2.313 -1.908,2.468c-2.835,0.363 -5.701,0.547 -8.558,0.547z" fill="#363E44" id="svg_25"/>
            <path d="m954.54757,1138.96452c-1.266,0 -2.528,-0.035 -3.785,-0.108c-5.953,-0.34 -11.855,-1.48 -17.54,-3.389c-1.154,-0.387 -1.776,-1.638 -1.389,-2.792c0.39,-1.154 1.639,-1.775 2.793,-1.388c5.312,1.784 10.826,2.85 16.385,3.167c3.833,0.217 7.71,0.08 11.53,-0.411c1.249,-0.151 2.315,0.699 2.47,1.906c0.155,1.208 -0.7,2.313 -1.906,2.468c-2.835,0.364 -5.701,0.547 -8.558,0.547z" fill="#363E44" id="svg_26"/>
            <path d="m960.72857,1165.15952c-1.264,0 -2.528,-0.036 -3.787,-0.108c-5.956,-0.34 -11.855,-1.48 -17.539,-3.388c-1.154,-0.388 -1.776,-1.638 -1.389,-2.792c0.39,-1.154 1.643,-1.774 2.793,-1.388c5.312,1.784 10.824,2.849 16.385,3.167c3.837,0.218 7.713,0.08 11.53,-0.411c1.251,-0.157 2.315,0.699 2.47,1.905c0.155,1.208 -0.698,2.313 -1.906,2.468c-2.834,0.365 -5.697,0.547 -8.557,0.547z" fill="#363E44" id="svg_27"/>
           </g>
          </g>
          <g id="svg_28">
           <path d="m1438.73857,1189.73052c-54.64,45.62 -204.273,186.934 -262.908,123.46c-48.5,-52.503 103.294,-183.695 154.615,-232.515c36.099,36.352 72.196,72.703 108.293,109.055z" fill="#E2A18D" id="svg_29"/>
           <path d="m1798.85057,1040.95652c55.733,44.279 224.4,162.223 174.103,232.489c-41.603,58.121 -200.796,-63.988 -258.99,-104.37c28.295,-42.707 56.59,-85.413 84.887,-128.119z" fill="#E2A18D" id="svg_30"/>
           <g id="svg_31">
            <path d="m1872.46357,1073.59152c0,0 -159.991,-136.74 -340.143,-93.044c-134.418,32.603 -156.202,61.196 -284.037,165.016l107.221,136.097l19.902,-22.405c2.15,10.579 12.842,288.878 12.842,288.878l484.216,0l-66.732,-318.199l24.024,-6.864l42.707,-149.479z" fill="#D87355" id="svg_32"/>
           </g>
          </g>
          <g id="svg_33">
           <path d="m1900.81657,1163.53752c-0.003,0 -0.006,-0.004 -0.009,-0.001c-109.41,68.886 -188.356,115.661 -212.16,131.06c-2.493,1.612 -6.906,4.439 -11.431,9.529c-16.769,18.86 -8.215,38.579 -16.799,66.456c-9.739,31.631 -33.131,43.929 -28.556,51.035c3.182,4.943 13.312,2.789 30.692,-8.772c0.001,-0.001 0.004,0.001 0.002,0.003c-12.195,10.302 -28.124,24.994 -22.411,31.717c7.011,7.41 27.753,-7.655 39.855,-17.382c-14.649,11.773 -18.916,22.416 -14.796,25.371c6.484,4.651 19.969,-1.834 38.725,-18.145c0.001,-0.001 0.002,0 0.002,0.001c-9.805,14.88 -9.966,19.951 -5.688,21.675c7.811,3.147 22.978,-10.552 34.53,-24.719c13.005,-15.948 17.559,-32.829 20.176,-43.541c0.001,-0.003 0.003,-0.005 0.005,-0.006c81.631,-40.301 132.57,-69.799 200.768,-97.317c43.465,-17.538 17.726,-120.701 -52.905,-126.964z" fill="#E2A18D" id="svg_34"/>
           <path d="m1674.25357,1346.84652c-28.771,15.641 -42.464,15.185 -44.797,10.546c-3.924,-7.801 15.174,-31.209 54.344,-59.365c-1.44,13.84 -8.106,34.98 -9.547,48.819z" fill="#E2A18D" id="svg_35"/>
           <g id="svg_36">
            <path d="m1798.35957,1229.67852c-0.736,0 -1.455,-0.369 -1.873,-1.04c-0.644,-1.034 -0.327,-2.394 0.706,-3.037c9.997,-6.22 42.301,-26.708 68.257,-43.169c15.714,-9.965 29.313,-18.59 34.773,-22.026c1.029,-0.649 2.392,-0.339 3.04,0.691c0.648,1.03 0.338,2.392 -0.693,3.04c-5.456,3.436 -19.051,12.058 -34.758,22.019c-25.963,16.466 -58.275,36.959 -68.289,43.19c-0.362,0.224 -0.764,0.332 -1.163,0.332z" fill="#363E44" id="svg_37"/>
            <path d="m1665.38657,1354.18052c-0.086,0 -0.172,-0.005 -0.261,-0.015c-1.208,-0.143 -2.073,-1.238 -1.931,-2.448c0.454,-3.859 0.73,-7.57 0.995,-11.16c0.577,-7.793 1.122,-15.153 3.406,-22.211c0.375,-1.157 1.621,-1.796 2.775,-1.419c1.158,0.375 1.793,1.618 1.419,2.776c-2.121,6.554 -2.646,13.658 -3.204,21.178c-0.269,3.637 -0.547,7.397 -1.012,11.35c-0.131,1.124 -1.085,1.949 -2.187,1.949z" fill="#363E44" id="svg_38"/>
            <path d="m1662.46657,1414.09952c-0.568,0 -1.137,-0.219 -1.568,-0.655c-0.857,-0.866 -0.848,-2.262 0.017,-3.118c3.983,-3.938 7.416,-8.382 10.202,-13.207c1.921,-3.322 3.542,-6.849 4.821,-10.481c0.405,-1.149 1.671,-1.753 2.812,-1.347c1.15,0.404 1.753,1.663 1.348,2.812c-1.369,3.889 -3.107,7.665 -5.161,11.223c-2.984,5.166 -6.657,9.923 -10.921,14.138c-0.43,0.423 -0.99,0.635 -1.55,0.635z" fill="#363E44" id="svg_39"/>
            <path d="m1677.95857,1429.89352c-0.569,0 -1.137,-0.219 -1.568,-0.655c-0.857,-0.866 -0.848,-2.262 0.017,-3.118c3.981,-3.938 7.415,-8.381 10.202,-13.208c1.918,-3.318 3.54,-6.845 4.823,-10.482c0.407,-1.148 1.662,-1.75 2.814,-1.346c1.148,0.405 1.75,1.664 1.346,2.813c-1.374,3.892 -3.111,7.667 -5.163,11.22c-2.984,5.167 -6.66,9.924 -10.921,14.138c-0.431,0.425 -0.99,0.638 -1.55,0.638z" fill="#363E44" id="svg_40"/>
            <path d="m1704.13457,1436.16252c-0.568,0 -1.137,-0.218 -1.568,-0.654c-0.857,-0.865 -0.848,-2.261 0.017,-3.118c3.983,-3.942 7.415,-8.386 10.199,-13.209c1.919,-3.319 3.54,-6.845 4.823,-10.482c0.407,-1.148 1.662,-1.75 2.814,-1.346c1.148,0.405 1.75,1.664 1.346,2.813c-1.374,3.892 -3.111,7.667 -5.163,11.221c-2.982,5.162 -6.655,9.918 -10.919,14.137c-0.428,0.426 -0.99,0.638 -1.549,0.638z" fill="#363E44" id="svg_41"/>
           </g>
          </g>
          <g id="svg_42">
           <g id="svg_43">
            <g id="svg_44">
             <polygon points="838.2896156311035,1163.6255493164062 1211.8956336975098,1163.6255493164062 1153.6225624084473,840.9655151367188 910.9835243225098,840.9655151367188 " fill="#8B865C" id="svg_45"/>
            </g>
            <path d="m995.46757,1138.09352c-0.997,0 -1.901,-0.682 -2.142,-1.694c-20.203,-84.726 -67.107,-282.237 -66.345,-286.38c0.222,-1.196 1.376,-1.99 2.567,-1.77c1.107,0.203 1.867,1.2 1.802,2.295c0.566,8.046 47.991,208.188 66.265,284.832c0.282,1.185 -0.448,2.374 -1.632,2.656c-0.172,0.041 -0.345,0.061 -0.515,0.061z" fill="#F7F1EB" id="svg_46"/>
            <path d="m855.27457,1152.24552c-0.769,0 -1.514,-0.402 -1.921,-1.117c-0.601,-1.059 -0.228,-2.405 0.831,-3.006l61.716,-35.029l0,-255.146c0,-1.218 0.986,-2.205 2.205,-2.205s2.205,0.987 2.205,2.205l0,256.43c0,0.793 -0.426,1.526 -1.118,1.917l-62.833,35.662c-0.342,0.197 -0.717,0.289 -1.085,0.289z" fill="#F7F1EB" id="svg_47"/>
           </g>
           <path d="m971.59857,861.34452c2.345,0 4.246,-1.901 4.246,-4.246l0,-61.418c0,-14.359 11.681,-26.039 26.04,-26.039l51.512,0c14.358,0 26.04,11.681 26.04,26.039l0,61.418c0,2.345 1.9,4.246 4.245,4.246s4.246,-1.901 4.246,-4.246l0,-61.418c0,-19.04 -15.49,-34.531 -34.531,-34.531l-51.512,0c-19.04,0 -34.531,15.49 -34.531,34.531l0,61.418c0,2.345 1.9,4.246 4.245,4.246z" fill="#776E42" id="svg_48"/>
          </g>
         </g>
         <g id="svg_49">
          <g id="svg_50">
           <path d="m1445.71757,975.78052c21.436,9.496 67.01,-37.378 67.01,-37.378l17.403,-69.482c-6.57,-32.322 -38.098,-53.198 -70.42,-46.628s-53.198,38.098 -46.628,70.42c0.001,0.001 10.801,73.396 32.635,83.068z" fill="#E2A18D" id="svg_51"/>
           <path d="m1526.17757,1031.03052l-1.592,0.324c-21.124,4.294 -41.73,-9.35 -46.024,-30.475l-23.636,-116.28c-0.116,-0.571 0.253,-1.128 0.824,-1.244l76.023,-15.453c0.571,-0.116 1.128,0.253 1.244,0.824l23.636,116.28c4.293,21.125 -9.351,41.73 -30.475,46.024z" fill="#E2A18D" id="svg_52"/>
           <path d="m1422.93657,906.73452c0,0 -12.919,20.535 -11.123,24.898c2.144,5.208 21.101,4.797 21.101,4.797s-10.406,-29.564 -9.978,-29.695z" fill="#E2A18D" id="svg_53"/>
           <g id="svg_54">
            <path d="m1475.24257,893.49452c0,0 -10.869,-3.278 -22.68,-0.877c-2.513,0.511 6.315,19.656 8.469,18.032c9.471,-7.137 14.211,-17.155 14.211,-17.155z" fill="#FFFFFF" id="svg_55"/>
            <path d="m1453.81657,892.40052c-2.913,0.499 -5.903,1.31 -8.823,2.608c-14.266,6.335 -21.407,21.427 -21.407,21.427s15.985,4.821 30.251,-1.514c3.345,-1.486 6.284,-3.461 8.845,-5.602c0.023,-6.54 -3.089,-12.958 -8.866,-16.919z" fill="#373E44" id="svg_56"/>
           </g>
           <path d="m1447.77657,945.99052c-1.296,0 -2.603,-0.236 -3.854,-0.722c-1.135,-0.441 -1.697,-1.719 -1.255,-2.853c0.439,-1.137 1.723,-1.696 2.853,-1.257c2.276,0.884 4.858,0.359 6.582,-1.332c1.662,-1.631 2.259,-4.127 1.524,-6.357c-0.383,-1.156 0.246,-2.403 1.402,-2.784c1.163,-0.384 2.403,0.247 2.784,1.403c1.26,3.814 0.23,8.086 -2.623,10.885c-2.004,1.968 -4.685,3.017 -7.413,3.017z" fill="#363E44" id="svg_57"/>
           <path d="m1472.65357,972.95252c-0.736,0 -1.458,-0.37 -1.875,-1.042c-0.642,-1.035 -0.325,-2.394 0.71,-3.036c18.03,-11.195 39.743,-30.894 39.96,-31.092c0.9,-0.82 2.295,-0.754 3.113,0.146c0.82,0.9 0.754,2.295 -0.146,3.115c-0.22,0.201 -22.231,20.171 -40.602,31.577c-0.361,0.224 -0.763,0.332 -1.16,0.332z" fill="#363E44" id="svg_58"/>
          </g>
          <path d="m1518.76257,814.04352c-14.575,-27.312 -37.11,-37.284 -47.656,-38.85c-31.047,-4.609 -49.835,21.742 -75.166,33.001c-26.037,11.572 -57.266,11.769 -75.052,7.403c6.737,26.091 20.213,39.102 26.936,44.547c33.001,26.732 90.534,22.875 139.859,-13.468c3.453,14.504 6.906,29.008 10.359,43.511c-1.492,-13.23 5.125,-19.939 11.914,-21.238c7.956,-1.523 16.576,6.734 18.129,14.504c2.938,14.693 -4.962,26.86 -6.215,28.49c8.234,10.887 16.071,17.582 25.05,25.352c24.464,-21.903 33.868,-58.344 21.051,-85.957c-16.086,-34.656 -47.109,-37.064 -49.209,-37.295z" fill="#363E44" id="svg_59"/>
         </g>
        </g>
       </g>
      </g>
      <g id="svg_60">
       <path d="m1825.91857,1518.38652l-1255.643,0c-11,0 -19.949,-8.949 -19.949,-19.949c0,-10.999 8.948,-19.948 19.949,-19.948l1255.642,0c10.998,0 19.947,8.949 19.947,19.948c0,11 -8.948,19.949 -19.946,19.949zm-1255.643,-35.488c-8.567,0 -15.539,6.971 -15.539,15.539c0,8.568 6.972,15.539 15.539,15.539l1255.642,0c8.568,0 15.537,-6.971 15.537,-15.539c0,-8.568 -6.97,-15.539 -15.537,-15.539l-1255.642,0z" fill="#FFFFFF" id="svg_61"/>
       <path d="m1405.66557,1516.18152l-835.389,0c-9.8,0 -17.744,-7.944 -17.744,-17.744l0,0c0,-9.8 7.944,-17.744 17.744,-17.744l835.389,0c9.8,0 17.744,7.944 17.744,17.744l0,0c-0.001,9.8 -7.945,17.744 -17.744,17.744z" fill="#E6D0BE" id="svg_62"/>
      </g>
      <g id="svg_63">
       <g id="svg_64">
        <rect x="526.99657" y="691.66152" width="293.974" height="217.561" fill="#FFFFFF" id="svg_65"/>
        <ellipse transform="matrix(0.7071 -0.7071 0.7071 0.7071 -163.684 740.07)" cx="555.13986" cy="629.49828" rx="51.448" ry="51.448" fill="#E6D0BE" id="svg_66"/>
        <polygon points="704.2995643615723,792.6475219726562 655.8525428771973,764.676513671875 655.8525428771973,820.6174926757812 " fill="#FFFFFF" id="svg_67"/>
        <rect x="540.99857" y="882.11652" width="260.996" height="11.307" fill="#E6D0BE" id="svg_68"/>
       </g>
       <g id="svg_69">
        <rect x="526.99657" y="970.12552" width="293.974" height="18.014" fill="#D3BBA3" id="svg_70"/>
        <rect x="526.99657" y="1006.63652" width="293.974" height="18.014" fill="#D3BBA3" id="svg_71"/>
        <rect x="526.99657" y="1043.14752" width="279.063" height="18.014" fill="#D3BBA3" id="svg_72"/>
        <rect x="526.99657" y="1079.65852" width="122.568" height="18.014" fill="#D3BBA3" id="svg_73"/>
       </g>
      </g>
      <g id="svg_74">
       <g id="svg_75">
        <ellipse transform="matrix(0.7071 -0.7071 0.7071 0.7071 -289.317 1231.89)" cx="1086.00786" cy="1027.06328" rx="114.335" ry="114.335" fill="#FFFFFF" id="svg_76"/>
        <path d="m1204.85257,1306.75252c-64.261,0 -116.541,-52.28 -116.541,-116.541s52.28,-116.54 116.541,-116.54c64.26,0 116.539,52.279 116.539,116.54s-52.279,116.541 -116.539,116.541zm0,-228.671c-61.83,0 -112.131,50.302 -112.131,112.13c0,61.829 50.302,112.131 112.131,112.131c61.828,0 112.129,-50.302 112.129,-112.131c0,-61.829 -50.302,-112.13 -112.129,-112.13z" fill="#D87355" id="svg_77"/>
       </g>
       <polygon points="1272.2244911193848,1190.2114868164062 1164.5585975646973,1128.0504760742188 1164.5585975646973,1252.3724975585938 " fill="#D87355" id="svg_78"/>
      </g>
     </g>
    </g>
    <g id="svg_79">
     <path d="m752.65357,1862.92852c15.496,40.729 29.917,86.17 41.524,136.105c34.782,149.642 30.961,282.294 18.456,380.634c-72.282,-1.538 -144.563,1.538 -216.846,0c-5.383,-76.896 -10.765,-158.405 -16.148,-235.301c-12.304,36.91 -24.607,73.82 -36.911,110.73c-13.841,41.524 -27.682,83.047 -41.524,124.571c-73.819,-2.307 -147.639,2.307 -221.459,0c3.998,-75.637 17.685,-188.042 59.978,-306.814c40.379,-113.397 93.193,-200.59 136.105,-260.676c92.276,16.916 184.551,33.834 276.825,50.751z" fill="#363E44" id="svg_80"/>
     <g id="svg_81">
      <g id="svg_82">
       <path d="m849.68357,1583.61452c57.427,51.209 239.376,193.481 168.799,254.667c-71.641,62.109 -207.956,-74.461 -268.278,-121.615c33.159,-44.352 66.319,-88.702 99.479,-133.052z" fill="#84524D" id="svg_83"/>
       <g id="svg_84">
        <path d="m968.04057,1705.07452c0.003,-0.002 0.005,-0.006 0.009,-0.005c136.713,29.002 234.264,46.957 264.162,53.683c3.131,0.704 8.663,1.923 15.155,5.396c24.055,12.867 22.745,36.063 41.865,61.134c21.695,28.447 50.017,32.182 48.031,41.1c-1.381,6.203 -12.461,7.802 -34.409,2.568c-0.002,0 -0.003,0.003 -0.001,0.003c16.218,5.894 37.864,14.847 34.581,23.8c-4.344,10.135 -31.01,2.603 -46.919,-2.742c19.256,6.47 27.561,15.671 24.486,20.207c-4.839,7.139 -20.941,5.6 -46.059,-3.938l-0.001,0.001c15.504,11.431 17.562,16.515 13.866,19.861c-6.747,6.11 -27.25,-2.12 -44.26,-12.174c-19.149,-11.319 -30.074,-26.74 -36.731,-36.628c-0.002,-0.002 -0.005,-0.005 -0.008,-0.005c-97.857,-10.385 -160.546,-21.276 -240.002,-23.712c-50.639,-1.553 -63.069,-115.811 6.235,-148.549z" fill="#84524D" id="svg_85"/>
        <path d="m1266.33057,1806.37652c35.027,5.117 48.745,-0.46 49.379,-6.037c1.066,-9.379 -27.05,-25.988 -77.3,-39.915c6.631,13.5 21.29,32.452 27.921,45.952z" fill="#84524D" id="svg_86"/>
        <g id="svg_87">
         <path d="m1247.85257,1863.35952c-1.113,0 -2.069,-0.839 -2.19,-1.97c-0.547,-5.116 -3.034,-18.091 -14.262,-28.073c-7.93,-7.049 -16.657,-9.55 -22.582,-10.407c-1.204,-0.174 -2.039,-1.293 -1.865,-2.498c0.172,-1.205 1.283,-2.041 2.498,-1.866c6.52,0.944 16.131,3.701 24.877,11.476c12.381,11.003 15.117,25.274 15.718,30.899c0.129,1.211 -0.747,2.297 -1.957,2.427c-0.08,0.008 -0.159,0.012 -0.237,0.012z" fill="#363E44" id="svg_88"/>
         <path d="m1277.24557,1810.47052c-0.803,0 -1.578,-0.441 -1.968,-1.207c-1.944,-3.829 -3.63,-7.534 -5.258,-11.117c-3.38,-7.435 -6.573,-14.457 -11.19,-20.332c-0.754,-0.957 -0.586,-2.343 0.37,-3.096c0.962,-0.754 2.347,-0.585 3.096,0.371c4.946,6.292 8.244,13.548 11.737,21.231c1.61,3.54 3.275,7.201 5.176,10.946c0.551,1.086 0.119,2.413 -0.967,2.964c-0.32,0.163 -0.66,0.24 -0.996,0.24z" fill="#363E44" id="svg_89"/>
         <path d="m1302.58357,1870.15952c-0.306,0 -0.616,-0.064 -0.911,-0.199c-5.887,-2.68 -11.375,-6.124 -16.317,-10.236c-3.408,-2.837 -6.574,-6.01 -9.407,-9.43c-0.775,-0.938 -0.646,-2.328 0.293,-3.104c0.939,-0.778 2.325,-0.646 3.105,0.291c2.659,3.211 5.63,6.19 8.83,8.854c4.64,3.861 9.795,7.095 15.322,9.612c1.109,0.505 1.598,1.812 1.094,2.921c-0.37,0.811 -1.171,1.291 -2.009,1.291z" fill="#363E44" id="svg_90"/>
         <path d="m1292.76957,1891.96652c-0.306,0 -0.616,-0.064 -0.911,-0.199c-5.889,-2.68 -11.377,-6.124 -16.317,-10.236c-3.406,-2.834 -6.571,-6.006 -9.407,-9.431c-0.775,-0.938 -0.646,-2.328 0.293,-3.104c0.937,-0.778 2.325,-0.646 3.105,0.292c2.661,3.215 5.633,6.193 8.83,8.853c4.638,3.862 9.792,7.095 15.322,9.612c1.109,0.504 1.598,1.812 1.094,2.92c-0.37,0.813 -1.171,1.293 -2.009,1.293z" fill="#363E44" id="svg_91"/>
         <path d="m1268.56157,1908.10452c-0.306,0 -0.616,-0.064 -0.911,-0.199c-5.887,-2.679 -11.377,-6.123 -16.317,-10.236c-3.404,-2.832 -6.569,-6.005 -9.407,-9.43c-0.775,-0.938 -0.646,-2.328 0.293,-3.104c0.937,-0.778 2.325,-0.646 3.105,0.291c2.663,3.216 5.635,6.195 8.83,8.854c4.638,3.862 9.795,7.096 15.322,9.612c1.109,0.504 1.598,1.812 1.094,2.92c-0.37,0.811 -1.171,1.292 -2.009,1.292z" fill="#363E44" id="svg_92"/>
        </g>
       </g>
      </g>
      <path d="m353.76957,1616.32452c-51.633,41.576 -204.702,140.111 -129.774,240.352c28.266,37.816 155.661,-83.593 209.61,-121.555c-26.612,-39.599 -53.224,-79.198 -79.836,-118.797z" fill="#84524D" id="svg_93"/>
      <path d="m307.66357,1638.39252c18.963,-17.53 161.135,-144.67 354.488,-113.037c111.501,18.242 182.344,50.25 223.308,76.23c-40.893,73.999 -54.137,90.378 -77.206,119.085c11.791,59.979 23.581,119.957 35.372,179.936c-87.661,-0.769 -370.637,-9.228 -459.835,-12.304c15.892,-50.751 31.783,-77.899 47.674,-128.651c-12.303,10.253 -24.607,20.505 -36.909,30.758c-28.451,-47.439 -61.517,-107.417 -86.892,-152.017z" fill="#FFFFFF" id="svg_94"/>
      <g id="svg_95">
       <g id="svg_96">
        <polygon points="253.8675880432129,2168.4724731445312 679.6105995178223,2276.1664428710938 706.2136268615723,1891.6825561523438 429.71457290649414,1821.7415161132812 " fill="#8B865C" id="svg_97"/>
       </g>
       <path d="m492.91457,1862.43552c2.672,0.676 5.386,-0.942 6.062,-3.614l17.704,-69.989c4.139,-16.362 20.817,-26.306 37.179,-22.167l58.7,14.849c16.362,4.139 26.306,20.817 22.167,37.179l-17.704,69.989c-0.676,2.672 0.942,5.386 3.614,6.062c2.672,0.676 5.386,-0.942 6.062,-3.614l17.704,-69.989c5.488,-21.697 -7.698,-43.814 -29.396,-49.303l-58.7,-14.849c-21.697,-5.489 -43.814,7.698 -49.303,29.396l-17.704,69.989c-0.675,2.672 0.943,5.385 3.615,6.061z" fill="#8B865C" id="svg_98"/>
       <path d="m440.97757,2184.37752c-0.009,0 -0.019,0 -0.03,0c-1.219,-0.017 -2.192,-1.017 -2.175,-2.235c1.094,-79.854 4.825,-340.752 6.914,-345.312c0.504,-1.105 1.811,-1.595 2.922,-1.087c1.031,0.472 1.524,1.639 1.178,2.691c-1.613,8.395 -5.023,228.367 -6.604,343.767c-0.018,1.208 -1.002,2.176 -2.205,2.176z" fill="#F7F1EB" id="svg_99"/>
       <path d="m277.13357,2160.09152c-0.967,0 -1.854,-0.642 -2.123,-1.621c-0.323,-1.174 0.366,-2.387 1.539,-2.71l80.644,-22.187l73.603,-290.969c0.299,-1.181 1.501,-1.897 2.679,-1.597c1.18,0.299 1.895,1.498 1.598,2.678l-73.917,292.214c-0.196,0.77 -0.788,1.375 -1.552,1.585l-81.882,22.527c-0.197,0.055 -0.395,0.08 -0.589,0.08z" fill="#F7F1EB" id="svg_100"/>
      </g>
      <g id="svg_101">
       <g id="svg_102">
        <polygon points="518.6315956115723,2319.0634155273438 965.805606842041,2210.1084594726562 801.9595985412598,1840.9075317382812 511.54260635375977,1911.6685180664062 " fill="#EFBC73" id="svg_103"/>
       </g>
       <path d="m590.03657,1918.38252c2.807,-0.684 4.527,-3.513 3.844,-6.32l-17.911,-73.512c-4.187,-17.186 6.387,-34.573 23.573,-38.761l61.655,-15.022c17.186,-4.187 34.573,6.387 38.761,23.573l17.911,73.512c0.684,2.807 3.513,4.527 6.32,3.844c2.807,-0.684 4.527,-3.513 3.843,-6.32l-17.911,-73.512c-5.553,-22.79 -28.611,-36.813 -51.4,-31.26l-61.655,15.022c-22.79,5.553 -36.813,28.611 -31.26,51.4l17.911,73.512c0.683,2.807 3.512,4.528 6.319,3.844z" fill="#E0AA63" id="svg_104"/>
       <path d="m698.67457,2242.23152c-0.801,0 -1.574,-0.438 -1.966,-1.201c-38.13,-74.503 -162.569,-317.993 -162.866,-323.221c-0.071,-1.215 0.859,-2.257 2.076,-2.327c1.117,-0.074 2.117,0.74 2.299,1.836c2.552,8.441 107.278,213.97 162.418,321.703c0.553,1.084 0.125,2.413 -0.958,2.967c-0.323,0.165 -0.665,0.243 -1.003,0.243z" fill="#F7F1EB" id="svg_105"/>
       <path d="m534.99657,2300.05452c-0.586,0 -1.171,-0.233 -1.606,-0.693c-0.833,-0.886 -0.792,-2.282 0.095,-3.117l63.871,-60.129l-74.479,-305.676c-0.289,-1.183 0.437,-2.376 1.621,-2.665c1.178,-0.287 2.375,0.438 2.663,1.62l74.783,306.924c0.187,0.771 -0.054,1.584 -0.631,2.127l-64.805,61.009c-0.427,0.402 -0.969,0.6 -1.512,0.6z" fill="#F7F1EB" id="svg_106"/>
      </g>
      <g id="svg_107">
       <g id="svg_108">
        <path d="m263.67457,1734.57552c61.428,4.108 206.566,6.622 220.724,7.431c26.466,1.514 168.291,13.322 168.805,33.971c0.246,9.867 -27.18,8.827 -36.441,8.206c7.232,4.19 36.749,17.27 34.147,28.024c-3.058,12.634 -40.616,2.433 -41.301,2.643c7.776,3.509 39.317,16.235 37.68,24.373c-2.13,10.588 -35.024,7.55 -44.829,6.185c0.842,1.481 32.538,9.198 30.534,21.931c-1.471,9.348 -31.644,6.514 -44.737,5.323c-23.516,-1.326 -297.844,-1.953 -348.813,-8.58c-19.952,-2.594 -2.755,-110.27 24.231,-129.507z" fill="#84524D" id="svg_109"/>
        <path d="m395.98057,1741.21952c-0.026,0 -0.049,0 -0.073,-0.001c-31.242,-1.023 -112.739,-4.651 -132.554,-5.756c-1.216,-0.068 -2.147,-1.108 -2.078,-2.324c0.067,-1.215 1.092,-2.148 2.323,-2.079c19.798,1.105 101.234,4.73 132.453,5.752c1.216,0.04 2.17,1.059 2.129,2.276c-0.038,1.191 -1.015,2.132 -2.2,2.132z" fill="#363E44" id="svg_110"/>
        <g id="svg_111">
         <path d="m617.14357,1785.42752c-0.291,0 -0.586,-0.058 -0.87,-0.18c-5.002,-2.153 -10.197,-3.976 -15.44,-5.419c-9.414,-2.59 -19.18,-4.015 -29.029,-4.234c-1.216,-0.027 -2.181,-1.036 -2.155,-2.253c0.028,-1.201 1.01,-2.156 2.205,-2.156c0.015,0 0.032,0 0.049,0c10.208,0.227 20.336,1.705 30.101,4.391c5.437,1.497 10.824,3.388 16.013,5.62c1.117,0.481 1.634,1.778 1.154,2.896c-0.36,0.836 -1.174,1.335 -2.028,1.335z" fill="#363E44" id="svg_112"/>
         <path d="m610.17557,1816.40752c-0.213,0 -0.433,-0.032 -0.648,-0.098c-1.092,-0.336 -2.209,-0.661 -3.35,-0.975c-9.416,-2.59 -19.182,-4.015 -29.029,-4.235c-1.216,-0.027 -2.181,-1.036 -2.155,-2.253c0.028,-1.201 1.01,-2.156 2.205,-2.156c0.015,0 0.032,0 0.049,0c10.208,0.228 20.334,1.706 30.101,4.392c1.184,0.326 2.34,0.663 3.475,1.012c1.165,0.358 1.817,1.592 1.46,2.755c-0.293,0.948 -1.165,1.558 -2.108,1.558z" fill="#363E44" id="svg_113"/>
         <path d="m601.83857,1847.29152c-0.133,0 -0.267,-0.012 -0.403,-0.037c-6.272,-1.16 -12.712,-1.821 -19.141,-1.965c-1.216,-0.027 -2.181,-1.036 -2.155,-2.254c0.028,-1.2 1.01,-2.155 2.205,-2.155c0.015,0 0.032,0 0.05,0c6.664,0.149 13.341,0.835 19.843,2.037c1.197,0.222 1.99,1.372 1.768,2.569c-0.197,1.063 -1.125,1.805 -2.167,1.805z" fill="#363E44" id="svg_114"/>
        </g>
       </g>
      </g>
     </g>
     <g id="svg_115">
      <path d="m470.96857,1429.54452c-56.199,0 -101.921,-45.721 -101.921,-101.92s45.722,-101.921 101.921,-101.921s101.919,45.721 101.919,101.921s-45.72,101.92 -101.919,101.92zm0,-199.431c-53.768,0 -97.512,43.743 -97.512,97.511c0,53.767 43.743,97.51 97.512,97.51c53.766,0 97.509,-43.743 97.509,-97.51c0,-53.768 -43.743,-97.511 -97.509,-97.511z" fill="#363E44" id="svg_116"/>
      <circle cx="488.81557" cy="1285.03152" r="124.246" fill="#363E44" id="svg_117"/>
      <circle cx="619.62757" cy="1381.75952" r="83.821" fill="#363E44" id="svg_118"/>
      <path d="m688.15857,1484.44152c-18.521,13.153 -70.84,-22.557 -70.84,-22.557l-29.934,-62.613c0,-31.957 25.907,-57.864 57.864,-57.864l0,0c31.957,0 57.864,25.906 57.864,57.864c-0.001,-0.001 3.909,71.772 -14.954,85.17z" fill="#84524D" id="svg_119"/>
      <ellipse cx="625.71157" cy="1548.13452" rx="67.005" ry="27.472" fill="#84524D" id="svg_120"/>
      <rect x="587.38457" y="1398.62052" width="71.517" height="146.287" fill="#84524D" id="svg_121"/>
      <path d="m696.46257,1414.48652c0,0 16.23,17.004 15.367,21.494c-1.031,5.359 -19.11,8.628 -19.11,8.628s4.174,-30.081 3.743,-30.122z" fill="#84524D" id="svg_122"/>
      <path d="m670.39257,1489.87952c-0.127,0 -0.258,-0.011 -0.388,-0.034c-22.862,-4.069 -52.672,-24.284 -53.93,-25.142c-1.005,-0.686 -1.266,-2.058 -0.579,-3.064c0.687,-1.006 2.063,-1.264 3.064,-0.578c0.302,0.205 30.293,20.54 52.216,24.443c1.199,0.214 1.998,1.359 1.785,2.557c-0.189,1.067 -1.119,1.818 -2.168,1.818z" fill="#363E44" id="svg_123"/>
      <g id="svg_124">
       <path d="m638.49957,1407.97352c0,0 10.617,-5.71 23.416,-5.71c2.723,0 -2.414,21.79 -4.999,20.556c-11.365,-5.424 -18.417,-14.846 -18.417,-14.846z" fill="#FFFFFF" id="svg_125"/>
       <g id="svg_126">
        <defs transform="translate(-25.0032 312.54) translate(187.524 75.0095) translate(-350.044 -162.521) translate(50.0063 0)">
         <path id="SVGID_1_" d="m776.017,1182.945c0,0 15.615,-8.399 31.799,-4.824c16.184,3.575 26.808,17.77 26.808,17.77s-15.615,8.399 -31.799,4.823c-16.183,-3.574 -26.808,-17.769 -26.808,-17.769z"/>
        </defs>
        <clipPath transform="translate(-25.0032 312.54) translate(187.524 75.0095) translate(-350.044 -162.521) translate(50.0063 0)" id="SVGID_00000181053851976584300180000010149230191242429596_">
         <use x="-137.51743" y="225.02852" xlink:href="#SVGID_1_" id="svg_127"/>
        </clipPath>
        <path d="m662.45657,1401.70452c8.465,-8.465 22.189,-8.465 30.653,0c8.465,8.465 8.465,22.189 0,30.653s-22.189,8.465 -30.653,0c-8.464,-8.465 -8.464,-22.189 0,-30.653z" clip-path="url(#SVGID_00000181053851976584300180000010149230191242429596_)" fill="#363E44" id="svg_128"/>
       </g>
      </g>
      <path d="m675.93057,1456.88252c-2.101,0 -4.201,-0.593 -6.027,-1.779c-3.514,-2.28 -5.465,-6.457 -4.97,-10.641c0.144,-1.209 1.236,-2.081 2.45,-1.93c1.208,0.143 2.071,1.24 1.929,2.449c-0.299,2.528 0.874,5.05 2.991,6.423c2.198,1.426 5.056,1.425 7.28,-0.005c1.031,-0.657 2.39,-0.362 3.047,0.663c0.659,1.024 0.362,2.388 -0.661,3.047c-1.838,1.182 -3.942,1.773 -6.039,1.773z" fill="#363E44" id="svg_129"/>
      <path d="m573.30157,1414.48652c0,0 18.45,-7.405 37.495,12.144l12.346,-6.76c0,0 -7.151,-78.738 79.148,-47.79c0,0 -29.597,-66.119 -87.327,-41.838c-57.731,24.281 -41.662,84.244 -41.662,84.244z" fill="#363E44" id="svg_130"/>
      <g id="svg_131">
       <path d="m572.57257,1428.32052c3.376,11.306 14.082,18.092 23.914,15.156c9.831,-2.936 15.065,-14.48 11.689,-25.787c-3.376,-11.306 -14.082,-18.092 -23.913,-15.156c-9.832,2.936 -15.066,14.481 -11.69,25.787z" fill="#84524D" id="svg_132"/>
       <path d="m600.50557,1421.82052c-0.95,0 -1.828,-0.618 -2.112,-1.574c-1.578,-5.291 -6.492,-8.517 -10.936,-7.187c-2.625,0.784 -4.638,3.056 -5.385,6.078c-0.293,1.184 -1.488,1.902 -2.67,1.611c-1.182,-0.292 -1.903,-1.487 -1.61,-2.669c1.124,-4.553 4.267,-8.01 8.404,-9.246c6.767,-2.02 14.146,2.527 16.422,10.151c0.349,1.166 -0.314,2.395 -1.481,2.744c-0.212,0.062 -0.423,0.092 -0.632,0.092z" fill="#363E44" id="svg_133"/>
      </g>
      <path d="m591.19557,1474.13152c-10.727,0 -19.454,-8.727 -19.454,-19.454c0,-10.727 8.727,-19.454 19.454,-19.454c10.727,0 19.456,8.727 19.456,19.454c0,10.727 -8.729,19.454 -19.456,19.454zm0,-34.498c-8.296,0 -15.044,6.748 -15.044,15.044s6.748,15.045 15.044,15.045c8.296,0 15.046,-6.749 15.046,-15.045s-6.75,-15.044 -15.046,-15.044z" fill="#EFBC73" id="svg_134"/>
     </g>
     <g id="svg_135">
      <g id="svg_136">
       <g id="svg_137">
        <g id="svg_138">
         <path d="m1433.15257,2198.29952c-1.019,0 -1.916,-0.704 -2.147,-1.713l-93.86,-410.596l-117.153,1.117c-0.009,0 -0.015,0 -0.021,0c-1.208,0 -2.194,-0.973 -2.205,-2.184c-0.011,-1.218 0.967,-2.214 2.183,-2.226l118.929,-1.134c0.009,0 0.015,0 0.021,0c1.027,0 1.921,0.71 2.149,1.713l93.828,410.46l424.86,-35.741l-0.22,-270.896l-129.068,0.105l-0.002,0c-1.217,0 -2.205,-0.986 -2.205,-2.203c0,-1.218 0.986,-2.205 2.203,-2.206l131.273,-0.107l0.002,0c1.216,0 2.205,0.986 2.205,2.203l0.224,275.13c0,1.147 -0.876,2.103 -2.02,2.199l-428.79,36.072c-0.061,0.005 -0.124,0.007 -0.186,0.007z" fill="#363E44" id="svg_139"/>
         <path d="m1750.50857,2171.60252c-1.148,0 -2.114,-0.888 -2.196,-2.05l-19.919,-282.158l-366.284,0.11c-1.217,0.001 -2.205,-0.987 -2.205,-2.204c0,-1.218 0.986,-2.205 2.205,-2.205l368.338,-0.11c1.156,0 2.119,0.895 2.198,2.05l20.063,284.208c0.086,1.214 -0.829,2.269 -2.043,2.354c-0.052,0.004 -0.105,0.005 -0.157,0.005z" fill="#363E44" id="svg_140"/>
         <path d="m1396.34457,2387.41052c-39.368,0 -71.413,-32.011 -71.446,-71.388c-0.03,-39.395 31.994,-71.472 71.387,-71.504c0.019,0 0.039,0 0.058,0c39.368,0 71.415,32.012 71.448,71.388l0,0c0.03,39.395 -31.994,71.471 -71.387,71.504c-0.019,0 -0.041,0 -0.06,0zm0,-138.482c-0.019,0 -0.035,0 -0.054,0c-36.963,0.03 -67.012,30.127 -66.982,67.091c0.03,36.944 30.101,66.981 67.036,66.981c0.021,0 0.037,0 0.056,0c36.963,-0.03 67.012,-30.127 66.982,-67.091l0,0c-0.03,-36.943 -30.101,-66.981 -67.038,-66.981z" fill="#363E44" id="svg_141"/>
         <path d="m1896.46357,2387.00352c-39.366,0.001 -71.411,-32.011 -71.443,-71.388c-0.03,-39.395 31.994,-71.471 71.387,-71.504c0.019,0 0.041,0 0.06,0c19.062,0 36.985,7.415 50.476,20.885c13.507,13.484 20.952,31.419 20.967,50.503l0,0c0.015,19.084 -7.4,37.031 -20.883,50.536c-13.485,13.506 -31.421,20.952 -50.504,20.967c-0.019,0.001 -0.04,0.001 -0.06,0.001zm0.002,-138.482c-0.017,0 -0.037,0 -0.054,0c-36.963,0.03 -67.012,30.127 -66.982,67.091c0.03,36.944 30.101,66.979 67.034,66.981c0.021,0 0.037,0 0.056,0c17.908,-0.014 34.737,-7.001 47.386,-19.673c12.652,-12.672 19.611,-29.512 19.596,-47.418l0,0c-0.015,-17.906 -7,-34.735 -19.673,-47.385c-12.658,-12.638 -29.477,-19.596 -47.363,-19.596z" fill="#363E44" id="svg_142"/>
         <path d="m1465.58557,2317.63052c-1.217,0 -2.205,-0.986 -2.205,-2.203s0.986,-2.205 2.203,-2.206l361.097,-0.294l0.002,0c1.217,0 2.205,0.986 2.205,2.203s-0.986,2.205 -2.203,2.207l-361.097,0.294l-0.002,0l0,-0.001z" fill="#363E44" id="svg_143"/>
         <path d="m1416.61457,2251.94952c-0.215,0 -0.433,-0.032 -0.65,-0.099c-1.163,-0.359 -1.815,-1.593 -1.458,-2.756l16.541,-53.649c0.36,-1.164 1.585,-1.816 2.758,-1.457c1.163,0.359 1.815,1.593 1.458,2.757l-16.54,53.649c-0.294,0.947 -1.166,1.555 -2.109,1.555z" fill="#363E44" id="svg_144"/>
        </g>
        <path d="m1646.13057,2180.38352c-1.083,0 -2.026,-0.797 -2.181,-1.898l-41,-291.346c-0.17,-1.206 0.67,-2.321 1.875,-2.491c1.238,-0.173 2.321,0.672 2.491,1.876l41,291.346c0.17,1.206 -0.67,2.321 -1.875,2.491c-0.105,0.015 -0.209,0.022 -0.31,0.022z" fill="#363E44" id="svg_145"/>
        <path d="m1534.35657,2189.78752c-1.044,0 -1.972,-0.745 -2.166,-1.809l-55.323,-302.392c-0.22,-1.198 0.573,-2.346 1.772,-2.565c1.197,-0.22 2.347,0.574 2.564,1.772l55.323,302.392c0.22,1.198 -0.573,2.346 -1.772,2.566c-0.133,0.024 -0.267,0.036 -0.398,0.036z" fill="#363E44" id="svg_146"/>
        <path d="m1399.51557,2051.15852c-1.169,0 -2.145,-0.92 -2.201,-2.101c-0.056,-1.217 0.883,-2.249 2.099,-2.305l462.319,-21.66c1.255,-0.044 2.248,0.884 2.306,2.099c0.056,1.216 -0.883,2.249 -2.099,2.305l-462.319,21.66c-0.034,0.001 -0.07,0.002 -0.105,0.002z" fill="#363E44" id="svg_147"/>
       </g>
      </g>
     </g>
    </g>
   </g>
  </g>
 </g>
</svg>